{
	"asset":{
		"generator":"Khronos glTF Blender I/O v5.1.18",
		"version":"2.0"
	},
	"extensionsUsed":[
		"KHR_materials_specular"
	],
	"scene":0,
	"scenes":[
		{
			"name":"Scene",
			"nodes":[
				0,
				2,
				5,
				9,
				17
			]
		}
	],
	"nodes":[
		{
			"name":"Cube",
			"rotation":[
				-0.70710688829422,
				0,
				0,
				0.7071066498756409
			],
			"scale":[
				2.3970906734466553,
				2.397090435028076,
				2.397090435028076
			],
			"translation":[
				1.5738213062286377,
				3.450301170349121,
				-53.104434967041016
			]
		},
		{
			"name":"Object_4",
			"translation":[
				-4.00543212890625e-05,
				2.86102294921875e-05,
				-7.62939453125e-06
			]
		},
		{
			"children":[
				1
			],
			"name":"CINEMA_4D_Editor",
			"rotation":[
				0.06633269041776657,
				-0.9792999029159546,
				-0.01292380690574646,
				0.19080008566379547
			],
			"translation":[
				966.09765625,
				196.2276611328125,
				-474.0234680175781
			]
		},
		{
			"name":"RootNode",
			"translation":[
				-7.152557373046875e-06,
				0,
				3.7550926208496094e-06
			]
		},
		{
			"children":[
				3
			],
			"name":"58513729462343e59376c6c07eb1eace.fbx",
			"rotation":[
				0.70710688829422,
				0,
				0,
				0.7071066498756409
			],
			"translation":[
				7.152557373046875e-06,
				8.821487426757812e-06,
				3.2782554626464844e-06
			]
		},
		{
			"children":[
				4
			],
			"name":"Sketchfab_model",
			"rotation":[
				-0.5579351782798767,
				0.518535852432251,
				0.4298836886882782,
				0.48479795455932617
			],
			"scale":[
				0.0012089353986084461,
				0.0012089352821931243,
				0.0012089353986084461
			],
			"translation":[
				-0.049109868705272675,
				-0.06348283588886261,
				0.23612038791179657
			]
		},
		{
			"name":"Sphere.001",
			"rotation":[
				-0.47802236676216125,
				-0.5711410045623779,
				0.46527430415153503,
				0.4783433675765991
			],
			"scale":[
				83.77055358886719,
				99.9022445678711,
				100.02848815917969
			],
			"translation":[
				0,
				15.878535270690918,
				0
			]
		},
		{
			"children":[
				6
			],
			"name":"RootNode.001"
		},
		{
			"children":[
				7
			],
			"name":"924a3f4fe48446938eaae82fb923de35.fbx",
			"rotation":[
				0.70710688829422,
				0,
				0,
				0.7071066498756409
			],
			"scale":[
				0.009999999776482582,
				0.010000000707805157,
				0.010000000707805157
			]
		},
		{
			"children":[
				8
			],
			"name":"Sketchfab_model.001",
			"rotation":[
				-0.70710688829422,
				0,
				0,
				0.7071066498756409
			],
			"scale":[
				13.333512306213379,
				13.333514213562012,
				13.333514213562012
			]
		},
		{
			"mesh":0,
			"name":"Object_4.001"
		},
		{
			"mesh":1,
			"name":"Object_5"
		},
		{
			"mesh":2,
			"name":"Object_6"
		},
		{
			"mesh":3,
			"name":"Object_7"
		},
		{
			"children":[
				10,
				11,
				12,
				13
			],
			"name":"chicken_nugget_0"
		},
		{
			"children":[
				14
			],
			"name":"GLTF_SceneRootNode",
			"rotation":[
				0.70710688829422,
				0,
				0,
				0.7071066498756409
			]
		},
		{
			"children":[
				15
			],
			"name":"root"
		},
		{
			"children":[
				16
			],
			"name":"Sketchfab_model.002",
			"rotation":[
				-0.70710688829422,
				0,
				0,
				0.7071066498756409
			],
			"scale":[
				13.333512306213379,
				13.333514213562012,
				13.333514213562012
			]
		}
	],
	"materials":[
		{
			"doubleSided":true,
			"extensions":{
				"KHR_materials_specular":{
					"specularFactor":0.49828723073005676,
					"specularTexture":{
						"index":0
					}
				}
			},
			"name":"nugget_mat",
			"pbrMetallicRoughness":{
				"baseColorTexture":{
					"index":1
				},
				"metallicFactor":0,
				"metallicRoughnessTexture":{
					"index":2,
					"texCoord":1
				}
			}
		}
	],
	"meshes":[
		{
			"name":"Object_0.002",
			"primitives":[
				{
					"attributes":{
						"POSITION":0,
						"NORMAL":1,
						"TEXCOORD_0":2,
						"TEXCOORD_1":3,
						"TEXCOORD_2":4
					},
					"indices":5,
					"material":0
				}
			]
		},
		{
			"name":"Object_1.001",
			"primitives":[
				{
					"attributes":{
						"POSITION":6,
						"NORMAL":7,
						"TEXCOORD_0":8,
						"TEXCOORD_1":9,
						"TEXCOORD_2":10
					},
					"indices":11,
					"material":0
				}
			]
		},
		{
			"name":"Object_2",
			"primitives":[
				{
					"attributes":{
						"POSITION":12,
						"NORMAL":13,
						"TEXCOORD_0":14,
						"TEXCOORD_1":15,
						"TEXCOORD_2":16
					},
					"indices":17,
					"material":0
				}
			]
		},
		{
			"name":"Object_3",
			"primitives":[
				{
					"attributes":{
						"POSITION":18,
						"NORMAL":19,
						"TEXCOORD_0":20,
						"TEXCOORD_1":21,
						"TEXCOORD_2":22
					},
					"indices":23,
					"material":0
				}
			]
		}
	],
	"textures":[
		{
			"sampler":0,
			"source":0
		},
		{
			"sampler":0,
			"source":1
		},
		{
			"sampler":0,
			"source":2
		}
	],
	"images":[
		{
			"mimeType":"image/png",
			"name":"nugget_mat_specularf0",
			"uri":"nugget_mat_specularf0.png"
		},
		{
			"mimeType":"image/png",
			"name":"nugget_mat_baseColor",
			"uri":"nugget_mat_baseColor.png"
		},
		{
			"mimeType":"image/png",
			"name":"nugget_mat_metallicRoughness",
			"uri":"nugget_mat_metallicRoughness.png"
		}
	],
	"accessors":[
		{
			"bufferView":0,
			"componentType":5126,
			"count":65824,
			"max":[
				0.06905630975961685,
				0.09657249599695206,
				0.03475131094455719
			],
			"min":[
				-0.07187844067811966,
				-0.0766671672463417,
				-0.03401599079370499
			],
			"type":"VEC3"
		},
		{
			"bufferView":1,
			"componentType":5126,
			"count":65824,
			"type":"VEC3"
		},
		{
			"bufferView":2,
			"componentType":5126,
			"count":65824,
			"type":"VEC2"
		},
		{
			"bufferView":3,
			"componentType":5126,
			"count":65824,
			"type":"VEC2"
		},
		{
			"bufferView":4,
			"componentType":5126,
			"count":65824,
			"type":"VEC2"
		},
		{
			"bufferView":5,
			"componentType":5125,
			"count":328413,
			"type":"SCALAR"
		},
		{
			"bufferView":6,
			"componentType":5126,
			"count":65822,
			"max":[
				0.07271160185337067,
				0.09645780175924301,
				0.03425337374210358
			],
			"min":[
				-0.07290482521057129,
				-0.0900101587176323,
				-0.03365539759397507
			],
			"type":"VEC3"
		},
		{
			"bufferView":7,
			"componentType":5126,
			"count":65822,
			"type":"VEC3"
		},
		{
			"bufferView":8,
			"componentType":5126,
			"count":65822,
			"type":"VEC2"
		},
		{
			"bufferView":9,
			"componentType":5126,
			"count":65822,
			"type":"VEC2"
		},
		{
			"bufferView":10,
			"componentType":5126,
			"count":65822,
			"type":"VEC2"
		},
		{
			"bufferView":11,
			"componentType":5125,
			"count":315807,
			"type":"SCALAR"
		},
		{
			"bufferView":12,
			"componentType":5126,
			"count":65772,
			"max":[
				0.07112619280815125,
				0.09638047218322754,
				0.03449084982275963
			],
			"min":[
				-0.07253285497426987,
				-0.09047239273786545,
				-0.034543320536613464
			],
			"type":"VEC3"
		},
		{
			"bufferView":13,
			"componentType":5126,
			"count":65772,
			"type":"VEC3"
		},
		{
			"bufferView":14,
			"componentType":5126,
			"count":65772,
			"type":"VEC2"
		},
		{
			"bufferView":15,
			"componentType":5126,
			"count":65772,
			"type":"VEC2"
		},
		{
			"bufferView":16,
			"componentType":5126,
			"count":65772,
			"type":"VEC2"
		},
		{
			"bufferView":17,
			"componentType":5125,
			"count":303564,
			"type":"SCALAR"
		},
		{
			"bufferView":18,
			"componentType":5126,
			"count":56690,
			"max":[
				0.07275848090648651,
				0.0962534174323082,
				0.03424990549683571
			],
			"min":[
				-0.07290482521057129,
				-0.09041006863117218,
				-0.03442098945379257
			],
			"type":"VEC3"
		},
		{
			"bufferView":19,
			"componentType":5126,
			"count":56690,
			"type":"VEC3"
		},
		{
			"bufferView":20,
			"componentType":5126,
			"count":56690,
			"type":"VEC2"
		},
		{
			"bufferView":21,
			"componentType":5126,
			"count":56690,
			"type":"VEC2"
		},
		{
			"bufferView":22,
			"componentType":5126,
			"count":56690,
			"type":"VEC2"
		},
		{
			"bufferView":23,
			"componentType":5123,
			"count":187980,
			"type":"SCALAR"
		}
	],
	"bufferViews":[
		{
			"buffer":0,
			"byteLength":789888,
			"byteOffset":0,
			"target":34962
		},
		{
			"buffer":0,
			"byteLength":789888,
			"byteOffset":789888,
			"target":34962
		},
		{
			"buffer":0,
			"byteLength":526592,
			"byteOffset":1579776,
			"target":34962
		},
		{
			"buffer":0,
			"byteLength":526592,
			"byteOffset":2106368,
			"target":34962
		},
		{
			"buffer":0,
			"byteLength":526592,
			"byteOffset":2632960,
			"target":34962
		},
		{
			"buffer":0,
			"byteLength":1313652,
			"byteOffset":3159552,
			"target":34963
		},
		{
			"buffer":0,
			"byteLength":789864,
			"byteOffset":4473204,
			"target":34962
		},
		{
			"buffer":0,
			"byteLength":789864,
			"byteOffset":5263068,
			"target":34962
		},
		{
			"buffer":0,
			"byteLength":526576,
			"byteOffset":6052932,
			"target":34962
		},
		{
			"buffer":0,
			"byteLength":526576,
			"byteOffset":6579508,
			"target":34962
		},
		{
			"buffer":0,
			"byteLength":526576,
			"byteOffset":7106084,
			"target":34962
		},
		{
			"buffer":0,
			"byteLength":1263228,
			"byteOffset":7632660,
			"target":34963
		},
		{
			"buffer":0,
			"byteLength":789264,
			"byteOffset":8895888,
			"target":34962
		},
		{
			"buffer":0,
			"byteLength":789264,
			"byteOffset":9685152,
			"target":34962
		},
		{
			"buffer":0,
			"byteLength":526176,
			"byteOffset":10474416,
			"target":34962
		},
		{
			"buffer":0,
			"byteLength":526176,
			"byteOffset":11000592,
			"target":34962
		},
		{
			"buffer":0,
			"byteLength":526176,
			"byteOffset":11526768,
			"target":34962
		},
		{
			"buffer":0,
			"byteLength":1214256,
			"byteOffset":12052944,
			"target":34963
		},
		{
			"buffer":0,
			"byteLength":680280,
			"byteOffset":13267200,
			"target":34962
		},
		{
			"buffer":0,
			"byteLength":680280,
			"byteOffset":13947480,
			"target":34962
		},
		{
			"buffer":0,
			"byteLength":453520,
			"byteOffset":14627760,
			"target":34962
		},
		{
			"buffer":0,
			"byteLength":453520,
			"byteOffset":15081280,
			"target":34962
		},
		{
			"buffer":0,
			"byteLength":453520,
			"byteOffset":15534800,
			"target":34962
		},
		{
			"buffer":0,
			"byteLength":375960,
			"byteOffset":15988320,
			"target":34963
		}
	],
	"samplers":[
		{
			"magFilter":9729,
			"minFilter":9987
		}
	],
	"buffers":[
		{
			"byteLength":16364280,
			"uri":"scene.bin"
		}
	]
}
