{
  "accessors": [
    {
      "bufferView": 2,
      "componentType": 5126,
      "count": 65532,
      "max": [
        0.06905630975961685,
        0.09657249599695206,
        0.03475131094455719
      ],
      "min": [
        -0.07187844067811966,
        -0.0766671672463417,
        -0.03401599079370499
      ],
      "type": "VEC3"
    },
    {
      "bufferView": 2,
      "byteOffset": 786384,
      "componentType": 5126,
      "count": 65532,
      "max": [
        0.9998590350151062,
        0.999982476234436,
        0.9999905228614807
      ],
      "min": [
        -0.9999704360961914,
        -0.9997855424880981,
        -0.9999994039535522
      ],
      "type": "VEC3"
    },
    {
      "bufferView": 1,
      "componentType": 5126,
      "count": 65532,
      "max": [
        0.9946867227554321,
        0.9972853660583496
      ],
      "min": [
        0.038967519998550415,
        0.050249844789505005
      ],
      "type": "VEC2"
    },
    {
      "bufferView": 1,
      "byteOffset": 524256,
      "componentType": 5126,
      "count": 65532,
      "max": [
        0.9946867227554321,
        0.9972853660583496
      ],
      "min": [
        0.038967519998550415,
        0.050249844789505005
      ],
      "type": "VEC2"
    },
    {
      "bufferView": 1,
      "byteOffset": 1048512,
      "componentType": 5126,
      "count": 65532,
      "max": [
        0.9946867227554321,
        0.9972853660583496
      ],
      "min": [
        0.038967519998550415,
        0.050249844789505005
      ],
      "type": "VEC2"
    },
    {
      "bufferView": 0,
      "componentType": 5125,
      "count": 328413,
      "type": "SCALAR"
    },
    {
      "bufferView": 2,
      "byteOffset": 1572768,
      "componentType": 5126,
      "count": 65532,
      "max": [
        0.07271160185337067,
        0.09645780175924301,
        0.03425337374210358
      ],
      "min": [
        -0.07290482521057129,
        -0.0900101587176323,
        -0.03365539759397507
      ],
      "type": "VEC3"
    },
    {
      "bufferView": 2,
      "byteOffset": 2359152,
      "componentType": 5126,
      "count": 65532,
      "max": [
        0.9999322891235352,
        0.999982476234436,
        0.9999872446060181
      ],
      "min": [
        -0.9999932646751404,
        -0.9998345375061035,
        -0.9999924898147583
      ],
      "type": "VEC3"
    },
    {
      "bufferView": 1,
      "byteOffset": 1572768,
      "componentType": 5126,
      "count": 65532,
      "max": [
        0.9750199913978577,
        0.9602904319763184
      ],
      "min": [
        0.0066208261996507645,
        0.005382628180086613
      ],
      "type": "VEC2"
    },
    {
      "bufferView": 1,
      "byteOffset": 2097024,
      "componentType": 5126,
      "count": 65532,
      "max": [
        0.9750199913978577,
        0.9602904319763184
      ],
      "min": [
        0.0066208261996507645,
        0.005382628180086613
      ],
      "type": "VEC2"
    },
    {
      "bufferView": 1,
      "byteOffset": 2621280,
      "componentType": 5126,
      "count": 65532,
      "max": [
        0.9750199913978577,
        0.9602904319763184
      ],
      "min": [
        0.0066208261996507645,
        0.005382628180086613
      ],
      "type": "VEC2"
    },
    {
      "bufferView": 0,
      "byteOffset": 1313652,
      "componentType": 5125,
      "count": 315807,
      "type": "SCALAR"
    },
    {
      "bufferView": 2,
      "byteOffset": 3145536,
      "componentType": 5126,
      "count": 65532,
      "max": [
        0.07112619280815125,
        0.09638047218322754,
        0.03449084982275963
      ],
      "min": [
        -0.07253285497426987,
        -0.09047239273786545,
        -0.034543320536613464
      ],
      "type": "VEC3"
    },
    {
      "bufferView": 2,
      "byteOffset": 3931920,
      "componentType": 5126,
      "count": 65532,
      "max": [
        0.999944806098938,
        0.9999757409095764,
        0.9999993443489075
      ],
      "min": [
        -0.9999949932098389,
        -0.9999660849571228,
        -0.9999916553497314
      ],
      "type": "VEC3"
    },
    {
      "bufferView": 1,
      "byteOffset": 3145536,
      "componentType": 5126,
      "count": 65532,
      "max": [
        0.9915955066680908,
        0.9967824816703796
      ],
      "min": [
        0.0023998336400836706,
        0.009575576521456242
      ],
      "type": "VEC2"
    },
    {
      "bufferView": 1,
      "byteOffset": 3669792,
      "componentType": 5126,
      "count": 65532,
      "max": [
        0.9915955066680908,
        0.9967824816703796
      ],
      "min": [
        0.0023998336400836706,
        0.009575576521456242
      ],
      "type": "VEC2"
    },
    {
      "bufferView": 1,
      "byteOffset": 4194048,
      "componentType": 5126,
      "count": 65532,
      "max": [
        0.9915955066680908,
        0.9967824816703796
      ],
      "min": [
        0.0023998336400836706,
        0.009575576521456242
      ],
      "type": "VEC2"
    },
    {
      "bufferView": 0,
      "byteOffset": 2576880,
      "componentType": 5125,
      "count": 303564,
      "type": "SCALAR"
    },
    {
      "bufferView": 2,
      "byteOffset": 4718304,
      "componentType": 5126,
      "count": 56104,
      "max": [
        0.07275848090648651,
        0.0962534174323082,
        0.03424990549683571
      ],
      "min": [
        -0.07290482521057129,
        -0.09041006863117218,
        -0.03442098945379257
      ],
      "type": "VEC3"
    },
    {
      "bufferView": 2,
      "byteOffset": 5391552,
      "componentType": 5126,
      "count": 56104,
      "max": [
        0.999944806098938,
        0.9996111392974854,
        0.9999937415122986
      ],
      "min": [
        -0.9997435808181763,
        -0.9999660849571228,
        -0.9999938011169434
      ],
      "type": "VEC3"
    },
    {
      "bufferView": 1,
      "byteOffset": 4718304,
      "componentType": 5126,
      "count": 56104,
      "max": [
        0.9943464994430542,
        0.9961501359939575
      ],
      "min": [
        0.009000005200505257,
        0.01826709508895874
      ],
      "type": "VEC2"
    },
    {
      "bufferView": 1,
      "byteOffset": 5167136,
      "componentType": 5126,
      "count": 56104,
      "max": [
        0.9943464994430542,
        0.9961501359939575
      ],
      "min": [
        0.009000005200505257,
        0.01826709508895874
      ],
      "type": "VEC2"
    },
    {
      "bufferView": 1,
      "byteOffset": 5615968,
      "componentType": 5126,
      "count": 56104,
      "max": [
        0.9943464994430542,
        0.9961501359939575
      ],
      "min": [
        0.009000005200505257,
        0.01826709508895874
      ],
      "type": "VEC2"
    },
    {
      "bufferView": 0,
      "byteOffset": 3791136,
      "componentType": 5125,
      "count": 187980,
      "type": "SCALAR"
    }
  ],
  "asset": {
    "extras": {
      "author": "yanix (https://sketchfab.com/yanix)",
      "license": "CC-BY-4.0 (http://creativecommons.org/licenses/by/4.0/)",
      "source": "https://sketchfab.com/3d-models/chicken-nugget-0bc1d3bfa12042759340c049482c4ef9",
      "title": "Chicken Nugget"
    },
    "generator": "Sketchfab-16.62.0",
    "version": "2.0"
  },
  "bufferViews": [
    {
      "buffer": 0,
      "byteLength": 4543056,
      "name": "floatBufferViews",
      "target": 34963
    },
    {
      "buffer": 0,
      "byteLength": 6064800,
      "byteOffset": 4543056,
      "byteStride": 8,
      "name": "floatBufferViews",
      "target": 34962
    },
    {
      "buffer": 0,
      "byteLength": 6064800,
      "byteOffset": 10607856,
      "byteStride": 12,
      "name": "floatBufferViews",
      "target": 34962
    }
  ],
  "buffers": [
    {
      "byteLength": 16672656,
      "uri": "scene.bin"
    }
  ],
  "extensionsUsed": [
    "KHR_materials_specular"
  ],
  "images": [
    {
      "uri": "textures/nugget_mat_baseColor.png"
    },
    {
      "uri": "textures/nugget_mat_metallicRoughness.png"
    },
    {
      "uri": "textures/nugget_mat_specularf0.png"
    }
  ],
  "materials": [
    {
      "doubleSided": true,
      "extensions": {
        "KHR_materials_specular": {
          "specularColorFactor": [
            1.0,
            1.0,
            1.0
          ],
          "specularFactor": 0.49828723287537635,
          "specularTexture": {
            "index": 2
          }
        }
      },
      "name": "nugget_mat",
      "pbrMetallicRoughness": {
        "baseColorTexture": {
          "index": 0
        },
        "metallicFactor": 0.0,
        "metallicRoughnessTexture": {
          "index": 1,
          "texCoord": 1
        }
      }
    }
  ],
  "meshes": [
    {
      "name": "Object_0",
      "primitives": [
        {
          "attributes": {
            "NORMAL": 1,
            "POSITION": 0,
            "TEXCOORD_0": 2,
            "TEXCOORD_1": 3,
            "TEXCOORD_2": 4
          },
          "indices": 5,
          "material": 0,
          "mode": 4
        }
      ]
    },
    {
      "name": "Object_1",
      "primitives": [
        {
          "attributes": {
            "NORMAL": 7,
            "POSITION": 6,
            "TEXCOORD_0": 8,
            "TEXCOORD_1": 9,
            "TEXCOORD_2": 10
          },
          "indices": 11,
          "material": 0,
          "mode": 4
        }
      ]
    },
    {
      "name": "Object_2",
      "primitives": [
        {
          "attributes": {
            "NORMAL": 13,
            "POSITION": 12,
            "TEXCOORD_0": 14,
            "TEXCOORD_1": 15,
            "TEXCOORD_2": 16
          },
          "indices": 17,
          "material": 0,
          "mode": 4
        }
      ]
    },
    {
      "name": "Object_3",
      "primitives": [
        {
          "attributes": {
            "NORMAL": 19,
            "POSITION": 18,
            "TEXCOORD_0": 20,
            "TEXCOORD_1": 21,
            "TEXCOORD_2": 22
          },
          "indices": 23,
          "material": 0,
          "mode": 4
        }
      ]
    }
  ],
  "nodes": [
    {
      "children": [
        1
      ],
      "matrix": [
        1.0,
        0.0,
        0.0,
        0.0,
        0.0,
        2.220446049250313e-16,
        -1.0,
        0.0,
        0.0,
        1.0,
        2.220446049250313e-16,
        0.0,
        0.0,
        0.0,
        0.0,
        1.0
      ],
      "name": "Sketchfab_model"
    },
    {
      "children": [
        2
      ],
      "name": "root"
    },
    {
      "children": [
        3
      ],
      "matrix": [
        1.0,
        0.0,
        0.0,
        0.0,
        0.0,
        2.220446049250313e-16,
        1.0,
        0.0,
        0.0,
        -1.0,
        2.220446049250313e-16,
        0.0,
        0.0,
        0.0,
        0.0,
        1.0
      ],
      "name": "GLTF_SceneRootNode"
    },
    {
      "children": [
        4,
        5,
        6,
        7
      ],
      "name": "chicken_nugget_0"
    },
    {
      "mesh": 0,
      "name": "Object_4"
    },
    {
      "mesh": 1,
      "name": "Object_5"
    },
    {
      "mesh": 2,
      "name": "Object_6"
    },
    {
      "mesh": 3,
      "name": "Object_7"
    }
  ],
  "samplers": [
    {
      "magFilter": 9729,
      "minFilter": 9987,
      "wrapS": 10497,
      "wrapT": 10497
    }
  ],
  "scene": 0,
  "scenes": [
    {
      "name": "Sketchfab_Scene",
      "nodes": [
        0
      ]
    }
  ],
  "textures": [
    {
      "sampler": 0,
      "source": 0
    },
    {
      "sampler": 0,
      "source": 1
    },
    {
      "sampler": 0,
      "source": 2
    }
  ]
}
