{
	"asset":{
		"generator":"Khronos glTF Blender I/O v5.1.18",
		"version":"2.0"
	},
	"scene":0,
	"scenes":[
		{
			"name":"Scene",
			"nodes":[
				0,
				2,
				6,
				11
			]
		}
	],
	"nodes":[
		{
			"name":"Cube",
			"rotation":[
				-0.70710688829422,
				0,
				0,
				0.7071066498756409
			],
			"scale":[
				2.3970906734466553,
				2.397090435028076,
				2.397090435028076
			],
			"translation":[
				1.5738213062286377,
				3.450301170349121,
				-53.104434967041016
			]
		},
		{
			"name":"Object_4",
			"translation":[
				-4.00543212890625e-05,
				2.86102294921875e-05,
				-7.62939453125e-06
			]
		},
		{
			"children":[
				1
			],
			"name":"CINEMA_4D_Editor",
			"rotation":[
				0.06633269041776657,
				-0.9792999029159546,
				-0.01292380690574646,
				0.19080008566379547
			],
			"translation":[
				966.09765625,
				196.2276611328125,
				-474.0234680175781
			]
		},
		{
			"name":"Hoja Lechuga.008",
			"translation":[
				110.59336853027344,
				39.342193603515625,
				-36.484310150146484
			]
		},
		{
			"children":[
				3
			],
			"name":"RootNode",
			"translation":[
				-7.152557373046875e-06,
				0,
				3.7550926208496094e-06
			]
		},
		{
			"children":[
				4
			],
			"name":"58513729462343e59376c6c07eb1eace.fbx",
			"rotation":[
				0.70710688829422,
				0,
				0,
				0.7071066498756409
			],
			"translation":[
				7.152557373046875e-06,
				8.821487426757812e-06,
				3.2782554626464844e-06
			]
		},
		{
			"children":[
				5
			],
			"name":"Sketchfab_model",
			"rotation":[
				-0.5579351782798767,
				0.518535852432251,
				0.4298836886882782,
				0.48479795455932617
			],
			"scale":[
				0.0012089353986084461,
				0.0012089352821931243,
				0.0012089353986084461
			],
			"translation":[
				-0.049109868705272675,
				-0.06348283588886261,
				0.23612038791179657
			]
		},
		{
			"mesh":0,
			"name":"Sphere.001_Material.002_0",
			"scale":[
				1.118789553642273,
				1.1187894344329834,
				1.1187891960144043
			],
			"translation":[
				-0.7704509496688843,
				-0.08558518439531326,
				0.046920910477638245
			]
		},
		{
			"children":[
				7
			],
			"name":"Sphere.001",
			"rotation":[
				-0.47802236676216125,
				-0.5711410045623779,
				0.46527430415153503,
				0.4783433675765991
			],
			"scale":[
				83.77054595947266,
				99.90223693847656,
				100.02848815917969
			],
			"translation":[
				0,
				15.878533363342285,
				0
			]
		},
		{
			"children":[
				8
			],
			"name":"RootNode.001"
		},
		{
			"children":[
				9
			],
			"name":"924a3f4fe48446938eaae82fb923de35.fbx",
			"rotation":[
				0.70710688829422,
				0,
				0,
				0.7071066498756409
			],
			"scale":[
				0.009999999776482582,
				0.010000000707805157,
				0.010000000707805157
			]
		},
		{
			"children":[
				10
			],
			"name":"Sketchfab_model.001",
			"rotation":[
				-0.70710688829422,
				0,
				0,
				0.7071066498756409
			]
		}
	],
	"materials":[
		{
			"doubleSided":true,
			"name":"Material.010",
			"normalTexture":{
				"index":0
			},
			"occlusionTexture":{
				"index":1
			},
			"pbrMetallicRoughness":{
				"baseColorTexture":{
					"index":2
				},
				"metallicFactor":0,
				"metallicRoughnessTexture":{
					"index":1
				},
				"roughnessFactor":0
			}
		}
	],
	"meshes":[
		{
			"name":"Sphere.001_Material.002_0",
			"primitives":[
				{
					"attributes":{
						"POSITION":0,
						"NORMAL":1,
						"TEXCOORD_0":2,
						"TEXCOORD_1":3
					},
					"indices":4,
					"material":0
				}
			]
		}
	],
	"textures":[
		{
			"sampler":0,
			"source":0
		},
		{
			"sampler":0,
			"source":1
		},
		{
			"sampler":0,
			"source":2
		}
	],
	"images":[
		{
			"mimeType":"image/png",
			"name":"Material.002_normal",
			"uri":"Material.002_normal.png"
		},
		{
			"mimeType":"image/png",
			"name":"Material.002_metallicRoughness",
			"uri":"Material.002_metallicRoughness.png"
		},
		{
			"mimeType":"image/png",
			"name":"Material.002_baseColor",
			"uri":"Material.002_baseColor.png"
		}
	],
	"accessors":[
		{
			"bufferView":0,
			"componentType":5126,
			"count":26291,
			"max":[
				0.9999997019767761,
				0.8650270700454712,
				0.7047010064125061
			],
			"min":[
				0.44189944863319397,
				-0.6898528933525085,
				-0.8613438010215759
			],
			"type":"VEC3"
		},
		{
			"bufferView":1,
			"componentType":5126,
			"count":26291,
			"type":"VEC3"
		},
		{
			"bufferView":2,
			"componentType":5126,
			"count":26291,
			"type":"VEC2"
		},
		{
			"bufferView":3,
			"componentType":5126,
			"count":26291,
			"type":"VEC2"
		},
		{
			"bufferView":4,
			"componentType":5123,
			"count":111351,
			"type":"SCALAR"
		}
	],
	"bufferViews":[
		{
			"buffer":0,
			"byteLength":315492,
			"byteOffset":0,
			"target":34962
		},
		{
			"buffer":0,
			"byteLength":315492,
			"byteOffset":315492,
			"target":34962
		},
		{
			"buffer":0,
			"byteLength":210328,
			"byteOffset":630984,
			"target":34962
		},
		{
			"buffer":0,
			"byteLength":210328,
			"byteOffset":841312,
			"target":34962
		},
		{
			"buffer":0,
			"byteLength":222702,
			"byteOffset":1051640,
			"target":34963
		}
	],
	"samplers":[
		{
			"magFilter":9729,
			"minFilter":9987
		}
	],
	"buffers":[
		{
			"byteLength":1274344,
			"uri":"scene.bin"
		}
	]
}
