{
	"asset":{
		"generator":"Khronos glTF Blender I/O v5.1.18",
		"version":"2.0"
	},
	"scene":0,
	"scenes":[
		{
			"name":"Scene",
			"nodes":[
				1,
				3,
				5,
				7,
				10
			]
		}
	],
	"nodes":[
		{
			"name":"Object_4",
			"translation":[
				-4.00543212890625e-05,
				2.86102294921875e-05,
				-7.62939453125e-06
			]
		},
		{
			"children":[
				0
			],
			"name":"CINEMA_4D_Editor",
			"rotation":[
				0.06633269041776657,
				-0.9792999029159546,
				-0.01292380690574646,
				0.19080008566379547
			],
			"translation":[
				966.09765625,
				196.2276611328125,
				-474.0234680175781
			]
		},
		{
			"name":"\ufffd\ufffd\ufffd\ufffd\ufffd\ufffd\ufffd\ufffd\ufffd\ufffd\ufffd\ufffd.obj.cleaner.materialmerger.gles"
		},
		{
			"children":[
				2
			],
			"name":"Sketchfab_model",
			"rotation":[
				-0.70710688829422,
				0,
				0,
				0.7071066498756409
			]
		},
		{
			"name":"Object_4.001",
			"translation":[
				-4.00543212890625e-05,
				3.814697265625e-05,
				0
			]
		},
		{
			"children":[
				4
			],
			"name":"CINEMA_4D_Editor.001",
			"rotation":[
				0.06633269041776657,
				-0.9792999029159546,
				-0.012923805974423885,
				0.19080008566379547
			],
			"translation":[
				966.09765625,
				196.2276611328125,
				-474.0234680175781
			]
		},
		{
			"name":"\ufffd\ufffd\ufffd\ufffd\ufffd\ufffd\ufffd\ufffd\ufffd\ufffd\ufffd\ufffd.obj.cleaner.materialmerger.gles.001"
		},
		{
			"children":[
				6
			],
			"name":"Sketchfab_model.001",
			"rotation":[
				-0.70710688829422,
				0,
				0,
				0.7071066498756409
			]
		},
		{
			"mesh":0,
			"name":"Object_4.002",
			"translation":[
				0,
				0,
				0.7286252379417419
			]
		},
		{
			"children":[
				8
			],
			"name":"bowl of rice.obj.cleaner.materialmerger.gles"
		},
		{
			"children":[
				9
			],
			"name":"Sketchfab_model.002",
			"rotation":[
				-0.70710688829422,
				0,
				0,
				0.7071066498756409
			]
		}
	],
	"materials":[
		{
			"doubleSided":true,
			"name":"lambert4SG",
			"pbrMetallicRoughness":{
				"baseColorTexture":{
					"index":0
				},
				"metallicFactor":0
			}
		}
	],
	"meshes":[
		{
			"name":"Object_2.002",
			"primitives":[
				{
					"attributes":{
						"POSITION":0,
						"NORMAL":1,
						"TEXCOORD_0":2
					},
					"indices":3,
					"material":0
				}
			]
		}
	],
	"textures":[
		{
			"sampler":0,
			"source":0
		}
	],
	"images":[
		{
			"mimeType":"image/png",
			"name":"lambert4SG_baseColor",
			"uri":"lambert4SG_baseColor.png"
		}
	],
	"accessors":[
		{
			"bufferView":0,
			"componentType":5126,
			"count":98,
			"max":[
				0.9266600012779236,
				0.9266600012779236,
				0.5249230265617371
			],
			"min":[
				-0.9266600012779236,
				-0.9266600012779236,
				-0.8692259788513184
			],
			"type":"VEC3"
		},
		{
			"bufferView":1,
			"componentType":5126,
			"count":98,
			"type":"VEC3"
		},
		{
			"bufferView":2,
			"componentType":5126,
			"count":98,
			"type":"VEC2"
		},
		{
			"bufferView":3,
			"componentType":5123,
			"count":480,
			"type":"SCALAR"
		}
	],
	"bufferViews":[
		{
			"buffer":0,
			"byteLength":1176,
			"byteOffset":0,
			"target":34962
		},
		{
			"buffer":0,
			"byteLength":1176,
			"byteOffset":1176,
			"target":34962
		},
		{
			"buffer":0,
			"byteLength":784,
			"byteOffset":2352,
			"target":34962
		},
		{
			"buffer":0,
			"byteLength":960,
			"byteOffset":3136,
			"target":34963
		}
	],
	"samplers":[
		{
			"magFilter":9729,
			"minFilter":9987
		}
	],
	"buffers":[
		{
			"byteLength":4096,
			"uri":"scene.bin"
		}
	]
}
