{
	"asset":{
		"generator":"Khronos glTF Blender I/O v5.1.18",
		"version":"2.0"
	},
	"scene":0,
	"scenes":[
		{
			"name":"Scene",
			"nodes":[
				0,
				2,
				7
			]
		}
	],
	"nodes":[
		{
			"name":"Cube",
			"rotation":[
				-0.70710688829422,
				0,
				0,
				0.7071066498756409
			],
			"scale":[
				2.3970906734466553,
				2.397090435028076,
				2.397090435028076
			],
			"translation":[
				1.5738213062286377,
				3.450301170349121,
				-53.104434967041016
			]
		},
		{
			"name":"Object_4",
			"translation":[
				-4.00543212890625e-05,
				2.86102294921875e-05,
				-7.62939453125e-06
			]
		},
		{
			"children":[
				1
			],
			"name":"CINEMA_4D_Editor",
			"rotation":[
				0.06633269041776657,
				-0.9792999029159546,
				-0.01292380690574646,
				0.19080008566379547
			],
			"translation":[
				966.09765625,
				196.2276611328125,
				-474.0234680175781
			]
		},
		{
			"mesh":0,
			"name":"Hoja Lechuga.008_Green2_0",
			"rotation":[
				0.18416588008403778,
				-0.5637038350105286,
				-0.18265458941459656,
				0.7841928601264954
			],
			"scale":[
				9.581833839416504,
				9.581833839416504,
				9.581832885742188
			],
			"translation":[
				45.98267364501953,
				166.93301391601562,
				132.66729736328125
			]
		},
		{
			"children":[
				3
			],
			"name":"Hoja Lechuga.008",
			"translation":[
				110.59336853027344,
				39.342193603515625,
				-36.484310150146484
			]
		},
		{
			"children":[
				4
			],
			"name":"RootNode",
			"translation":[
				-7.152557373046875e-06,
				0,
				3.7550926208496094e-06
			]
		},
		{
			"children":[
				5
			],
			"name":"58513729462343e59376c6c07eb1eace.fbx",
			"rotation":[
				0.70710688829422,
				0,
				0,
				0.7071066498756409
			],
			"translation":[
				7.152557373046875e-06,
				8.821487426757812e-06,
				3.2782554626464844e-06
			]
		},
		{
			"children":[
				6
			],
			"name":"Sketchfab_model",
			"rotation":[
				-0.5579351782798767,
				0.518535852432251,
				0.4298836886882782,
				0.48479795455932617
			],
			"scale":[
				0.0012089353986084461,
				0.0012089352821931243,
				0.0012089353986084461
			],
			"translation":[
				-0.049109868705272675,
				-0.06348283588886261,
				0.23612038791179657
			]
		}
	],
	"materials":[
		{
			"doubleSided":true,
			"name":"Green2",
			"pbrMetallicRoughness":{
				"baseColorFactor":[
					0.2967529892921448,
					0.800000011920929,
					0.11356800049543381,
					1
				],
				"metallicFactor":0,
				"roughnessFactor":0.3598717749118805
			}
		},
		{
			"doubleSided":true,
			"name":"Green3",
			"pbrMetallicRoughness":{
				"baseColorFactor":[
					0.06842450052499771,
					0.46720200777053833,
					0.005659979768097401,
					1
				],
				"metallicFactor":0,
				"roughnessFactor":0.9219391942024231
			}
		},
		{
			"doubleSided":true,
			"name":"Green1",
			"pbrMetallicRoughness":{
				"baseColorFactor":[
					0.4900130033493042,
					0.800000011920929,
					0.1976040005683899,
					1
				],
				"metallicFactor":0,
				"roughnessFactor":0.1653062254190445
			}
		}
	],
	"meshes":[
		{
			"name":"Hoja Lechuga.008_Green2_0",
			"primitives":[
				{
					"attributes":{
						"POSITION":0,
						"NORMAL":1,
						"TEXCOORD_0":2
					},
					"indices":3,
					"material":0
				},
				{
					"attributes":{
						"POSITION":4,
						"NORMAL":5,
						"TEXCOORD_0":6
					},
					"indices":7,
					"material":1
				},
				{
					"attributes":{
						"POSITION":8,
						"NORMAL":9,
						"TEXCOORD_0":10
					},
					"indices":11,
					"material":2
				}
			]
		}
	],
	"accessors":[
		{
			"bufferView":0,
			"componentType":5126,
			"count":4384,
			"max":[
				67.99764251708984,
				37.26909255981445,
				53.58489227294922
			],
			"min":[
				-82.11821746826172,
				-46.49917984008789,
				-61.35365295410156
			],
			"type":"VEC3"
		},
		{
			"bufferView":1,
			"componentType":5126,
			"count":4384,
			"type":"VEC3"
		},
		{
			"bufferView":2,
			"componentType":5126,
			"count":4384,
			"type":"VEC2"
		},
		{
			"bufferView":3,
			"componentType":5123,
			"count":21312,
			"type":"SCALAR"
		},
		{
			"bufferView":4,
			"componentType":5126,
			"count":2327,
			"max":[
				67.04043579101562,
				40.4190559387207,
				60.8587532043457
			],
			"min":[
				-85.99089813232422,
				-47.47438430786133,
				-67.39193725585938
			],
			"type":"VEC3"
		},
		{
			"bufferView":5,
			"componentType":5126,
			"count":2327,
			"type":"VEC3"
		},
		{
			"bufferView":6,
			"componentType":5126,
			"count":2327,
			"type":"VEC2"
		},
		{
			"bufferView":7,
			"componentType":5123,
			"count":9408,
			"type":"SCALAR"
		},
		{
			"bufferView":8,
			"componentType":5126,
			"count":2990,
			"max":[
				66.5362777709961,
				32.64864730834961,
				18.403514862060547
			],
			"min":[
				-81.48917388916016,
				-46.1179313659668,
				-24.34307861328125
			],
			"type":"VEC3"
		},
		{
			"bufferView":9,
			"componentType":5126,
			"count":2990,
			"type":"VEC3"
		},
		{
			"bufferView":10,
			"componentType":5126,
			"count":2990,
			"type":"VEC2"
		},
		{
			"bufferView":11,
			"componentType":5123,
			"count":15360,
			"type":"SCALAR"
		}
	],
	"bufferViews":[
		{
			"buffer":0,
			"byteLength":52608,
			"byteOffset":0,
			"target":34962
		},
		{
			"buffer":0,
			"byteLength":52608,
			"byteOffset":52608,
			"target":34962
		},
		{
			"buffer":0,
			"byteLength":35072,
			"byteOffset":105216,
			"target":34962
		},
		{
			"buffer":0,
			"byteLength":42624,
			"byteOffset":140288,
			"target":34963
		},
		{
			"buffer":0,
			"byteLength":27924,
			"byteOffset":182912,
			"target":34962
		},
		{
			"buffer":0,
			"byteLength":27924,
			"byteOffset":210836,
			"target":34962
		},
		{
			"buffer":0,
			"byteLength":18616,
			"byteOffset":238760,
			"target":34962
		},
		{
			"buffer":0,
			"byteLength":18816,
			"byteOffset":257376,
			"target":34963
		},
		{
			"buffer":0,
			"byteLength":35880,
			"byteOffset":276192,
			"target":34962
		},
		{
			"buffer":0,
			"byteLength":35880,
			"byteOffset":312072,
			"target":34962
		},
		{
			"buffer":0,
			"byteLength":23920,
			"byteOffset":347952,
			"target":34962
		},
		{
			"buffer":0,
			"byteLength":30720,
			"byteOffset":371872,
			"target":34963
		}
	],
	"buffers":[
		{
			"byteLength":402592,
			"uri":"scene.bin"
		}
	]
}
