{
	"asset":{
		"generator":"Khronos glTF Blender I/O v5.1.18",
		"version":"2.0"
	},
	"scene":0,
	"scenes":[
		{
			"name":"Scene",
			"nodes":[
				1,
				2
			]
		}
	],
	"nodes":[
		{
			"name":"Object_4",
			"translation":[
				-4.1961669921875e-05,
				5.53131103515625e-05,
				0
			]
		},
		{
			"children":[
				0
			],
			"name":"CINEMA_4D_Editor",
			"rotation":[
				0.06633269041776657,
				-0.9792999029159546,
				-0.012923804111778736,
				0.19080008566379547
			],
			"translation":[
				966.09765625,
				196.2276611328125,
				-474.0234680175781
			]
		},
		{
			"mesh":0,
			"name":"Cylinder.002_Material.002_0",
			"rotation":[
				0.005262157414108515,
				0.7118359804153442,
				-0.010461640544235706,
				0.7022481560707092
			],
			"scale":[
				0.3762667775154114,
				0.376266747713089,
				0.37626680731773376
			],
			"translation":[
				0.0020423531532287598,
				0.878999650478363,
				0.008259727619588375
			]
		}
	],
	"materials":[
		{
			"doubleSided":true,
			"name":"Material.009",
			"pbrMetallicRoughness":{
				"baseColorFactor":[
					1,
					0.6397489905357361,
					0.10585899651050568,
					1
				],
				"metallicFactor":0,
				"roughnessFactor":0.6000000238418579
			}
		},
		{
			"doubleSided":true,
			"name":"Material.007",
			"pbrMetallicRoughness":{
				"metallicFactor":0,
				"roughnessFactor":0.6000000238418579
			}
		}
	],
	"meshes":[
		{
			"name":"Cylinder.002_Material.002_0.001",
			"primitives":[
				{
					"attributes":{
						"POSITION":0,
						"NORMAL":1
					},
					"indices":2,
					"material":0
				},
				{
					"attributes":{
						"POSITION":3,
						"NORMAL":4
					},
					"indices":5,
					"material":1
				}
			]
		}
	],
	"accessors":[
		{
			"bufferView":0,
			"componentType":5126,
			"count":32,
			"max":[
				1.4753916263580322,
				0.00013795867562294006,
				1.580685019493103
			],
			"min":[
				-1.475433588027954,
				-4.973262548446655e-06,
				-1.570001244544983
			],
			"type":"VEC3"
		},
		{
			"bufferView":1,
			"componentType":5126,
			"count":32,
			"type":"VEC3"
		},
		{
			"bufferView":2,
			"componentType":5123,
			"count":90,
			"type":"SCALAR"
		},
		{
			"bufferView":3,
			"componentType":5126,
			"count":337,
			"max":[
				2.3509931564331055,
				0.0001379847526550293,
				3.118626832962036
			],
			"min":[
				-2.3535256385803223,
				-2.3581082820892334,
				-2.4767727851867676
			],
			"type":"VEC3"
		},
		{
			"bufferView":4,
			"componentType":5126,
			"count":337,
			"type":"VEC3"
		},
		{
			"bufferView":5,
			"componentType":5123,
			"count":1620,
			"type":"SCALAR"
		}
	],
	"bufferViews":[
		{
			"buffer":0,
			"byteLength":384,
			"byteOffset":0,
			"target":34962
		},
		{
			"buffer":0,
			"byteLength":384,
			"byteOffset":384,
			"target":34962
		},
		{
			"buffer":0,
			"byteLength":180,
			"byteOffset":768,
			"target":34963
		},
		{
			"buffer":0,
			"byteLength":4044,
			"byteOffset":948,
			"target":34962
		},
		{
			"buffer":0,
			"byteLength":4044,
			"byteOffset":4992,
			"target":34962
		},
		{
			"buffer":0,
			"byteLength":3240,
			"byteOffset":9036,
			"target":34963
		}
	],
	"buffers":[
		{
			"byteLength":12276,
			"uri":"scene.bin"
		}
	]
}
