{
	"asset":{
		"generator":"Khronos glTF Blender I/O v5.1.18",
		"version":"2.0"
	},
	"scene":0,
	"scenes":[
		{
			"name":"Scene",
			"nodes":[
				0,
				1
			]
		}
	],
	"nodes":[
		{
			"name":"Cube",
			"rotation":[
				-0.70710688829422,
				0,
				0,
				0.7071066498756409
			],
			"scale":[
				2.3970906734466553,
				2.397090435028076,
				2.397090435028076
			],
			"translation":[
				1.5738213062286377,
				3.450301170349121,
				-53.104434967041016
			]
		},
		{
			"mesh":0,
			"name":"Cylinder.002_Material.002_0",
			"rotation":[
				-0.027449848130345345,
				-0.6861997842788696,
				0.0002722327772062272,
				0.7268950343132019
			],
			"scale":[
				0.3762667179107666,
				0.3762666881084442,
				0.3762667179107666
			],
			"translation":[
				0.08903871476650238,
				0.878833532333374,
				-0.004112109541893005
			]
		}
	],
	"materials":[
		{
			"doubleSided":true,
			"name":"Material.009",
			"pbrMetallicRoughness":{
				"baseColorFactor":[
					1,
					0.6397489905357361,
					0.10585899651050568,
					1
				],
				"metallicFactor":0,
				"roughnessFactor":0.6000000238418579
			}
		},
		{
			"doubleSided":true,
			"name":"Material.007",
			"pbrMetallicRoughness":{
				"metallicFactor":0,
				"roughnessFactor":0.6000000238418579
			}
		}
	],
	"meshes":[
		{
			"name":"Cylinder.002_Material.002_0.001",
			"primitives":[
				{
					"attributes":{
						"POSITION":0,
						"NORMAL":1
					},
					"indices":2,
					"material":0
				},
				{
					"attributes":{
						"POSITION":3,
						"NORMAL":4
					},
					"indices":5,
					"material":1
				}
			]
		}
	],
	"accessors":[
		{
			"bufferView":0,
			"componentType":5126,
			"count":32,
			"max":[
				1.4753916263580322,
				0.00013795867562294006,
				1.580685019493103
			],
			"min":[
				-1.475433588027954,
				-4.973262548446655e-06,
				-1.570001244544983
			],
			"type":"VEC3"
		},
		{
			"bufferView":1,
			"componentType":5126,
			"count":32,
			"type":"VEC3"
		},
		{
			"bufferView":2,
			"componentType":5123,
			"count":90,
			"type":"SCALAR"
		},
		{
			"bufferView":3,
			"componentType":5126,
			"count":337,
			"max":[
				2.3509931564331055,
				0.0001379847526550293,
				3.118626832962036
			],
			"min":[
				-2.3535256385803223,
				-2.3581082820892334,
				-2.4767727851867676
			],
			"type":"VEC3"
		},
		{
			"bufferView":4,
			"componentType":5126,
			"count":337,
			"type":"VEC3"
		},
		{
			"bufferView":5,
			"componentType":5123,
			"count":1620,
			"type":"SCALAR"
		}
	],
	"bufferViews":[
		{
			"buffer":0,
			"byteLength":384,
			"byteOffset":0,
			"target":34962
		},
		{
			"buffer":0,
			"byteLength":384,
			"byteOffset":384,
			"target":34962
		},
		{
			"buffer":0,
			"byteLength":180,
			"byteOffset":768,
			"target":34963
		},
		{
			"buffer":0,
			"byteLength":4044,
			"byteOffset":948,
			"target":34962
		},
		{
			"buffer":0,
			"byteLength":4044,
			"byteOffset":4992,
			"target":34962
		},
		{
			"buffer":0,
			"byteLength":3240,
			"byteOffset":9036,
			"target":34963
		}
	],
	"buffers":[
		{
			"byteLength":12276,
			"uri":"scene.bin"
		}
	]
}
