{
	"asset":{
		"generator":"Khronos glTF Blender I/O v5.1.18",
		"version":"2.0"
	},
	"extensionsUsed":[
		"KHR_materials_unlit"
	],
	"scene":0,
	"scenes":[
		{
			"name":"Scene",
			"nodes":[
				1,
				3,
				4,
				5,
				6,
				7,
				8,
				9,
				10,
				11,
				12,
				13,
				14,
				15,
				16,
				17,
				18,
				19,
				20,
				21,
				22,
				23,
				24,
				25,
				26,
				27,
				28,
				29,
				30,
				31,
				40
			]
		}
	],
	"nodes":[
		{
			"name":"Object_4",
			"translation":[
				-4.00543212890625e-05,
				2.86102294921875e-05,
				-7.62939453125e-06
			]
		},
		{
			"children":[
				0
			],
			"name":"CINEMA_4D_Editor",
			"rotation":[
				0.06633269041776657,
				-0.9792999029159546,
				-0.01292380690574646,
				0.19080008566379547
			],
			"translation":[
				966.09765625,
				196.2276611328125,
				-474.0234680175781
			]
		},
		{
			"name":"Object_4.001",
			"translation":[
				-4.00543212890625e-05,
				3.814697265625e-05,
				0
			]
		},
		{
			"children":[
				2
			],
			"name":"CINEMA_4D_Editor.001",
			"rotation":[
				0.06633269041776657,
				-0.9792999029159546,
				-0.012923805974423885,
				0.19080008566379547
			],
			"translation":[
				966.09765625,
				196.2276611328125,
				-474.0234680175781
			]
		},
		{
			"name":"plate",
			"scale":[
				0.9293256402015686,
				0.9293256402015686,
				0.9293256402015686
			],
			"translation":[
				0,
				0.8775198459625244,
				0
			]
		},
		{
			"name":"sweep2",
			"rotation":[
				0,
				0.3324364423751831,
				0,
				0.9431256651878357
			],
			"scale":[
				1,
				1.5878938436508179,
				1
			],
			"translation":[
				0,
				0.8412376046180725,
				0
			]
		},
		{
			"name":"sweep4",
			"scale":[
				1,
				1.5878938436508179,
				1
			],
			"translation":[
				0,
				0.8829199075698853,
				0
			]
		},
		{
			"name":"sweep5",
			"rotation":[
				0.0433509461581707,
				0,
				0,
				0.9990599155426025
			],
			"scale":[
				1,
				1.5878937244415283,
				1
			],
			"translation":[
				0,
				0.8283224105834961,
				-0.08499129116535187
			]
		},
		{
			"name":"sweep6",
			"rotation":[
				0,
				0,
				-0.13924406468868256,
				0.9902580976486206
			],
			"scale":[
				1,
				1.5878938436508179,
				1
			],
			"translation":[
				0.07088754326105118,
				0.948124349117279,
				-0.14839324355125427
			]
		},
		{
			"name":"sweep17",
			"rotation":[
				0,
				-0.43182241916656494,
				0,
				0.9019586443901062
			],
			"scale":[
				1,
				1.5878938436508179,
				1
			],
			"translation":[
				0,
				0.8412376046180725,
				0
			]
		},
		{
			"name":"sweep19",
			"rotation":[
				0,
				-0.7071068286895752,
				0,
				0.7071067094802856
			],
			"scale":[
				1,
				1.5878938436508179,
				1
			],
			"translation":[
				0,
				0.8643251657485962,
				0
			]
		},
		{
			"name":"sweep20",
			"rotation":[
				0.030653757974505424,
				-0.7064419984817505,
				-0.03065374679863453,
				0.7064420580863953
			],
			"scale":[
				1,
				1.5878937244415283,
				1
			],
			"translation":[
				0,
				0.8283224105834961,
				-0.08499129116535187
			]
		},
		{
			"name":"sweep21",
			"rotation":[
				-0.044414110481739044,
				-0.7057105302810669,
				-0.04441412165760994,
				0.7057105898857117
			],
			"scale":[
				1,
				1.5878936052322388,
				1
			],
			"translation":[
				0.2906680703163147,
				0.9113429188728333,
				-0.3231981098651886
			]
		},
		{
			"name":"sweep23",
			"rotation":[
				0,
				-0.8249485492706299,
				0,
				0.565207839012146
			],
			"scale":[
				1,
				1.5878938436508179,
				1
			],
			"translation":[
				0,
				0.8412376046180725,
				0
			]
		},
		{
			"name":"sweep25",
			"rotation":[
				0,
				-0.965925931930542,
				0,
				0.258819043636322
			],
			"scale":[
				1,
				1.5878938436508179,
				1
			],
			"translation":[
				0,
				0.8643251657485962,
				0
			]
		},
		{
			"name":"sweep26",
			"rotation":[
				0.029148124158382416,
				-0.965596079826355,
				0.025236818939447403,
				0.25717252492904663
			],
			"scale":[
				1,
				1.5878938436508179,
				1
			],
			"translation":[
				0,
				0.8283224105834961,
				-0.08499129116535187
			]
		},
		{
			"name":"sweep29",
			"rotation":[
				0,
				0.9985525012016296,
				0,
				0.05378735437989235
			],
			"scale":[
				1,
				1.5878938436508179,
				1
			],
			"translation":[
				0,
				0.8412376046180725,
				0
			]
		},
		{
			"name":"sweep31",
			"rotation":[
				0,
				0.9238795638084412,
				0,
				0.3826834261417389
			],
			"scale":[
				1,
				1.5878938436508179,
				1
			],
			"translation":[
				0,
				0.8643251657485962,
				0
			]
		},
		{
			"name":"sweep32",
			"rotation":[
				0.01658969186246395,
				0.9230110049247742,
				0.040051065385341644,
				0.3823237121105194
			],
			"scale":[
				1,
				1.5878937244415283,
				1
			],
			"translation":[
				0,
				0.8283224105834961,
				-0.08499129116535187
			]
		},
		{
			"name":"sweep35",
			"rotation":[
				0,
				0.7594612240791321,
				0,
				0.6505525708198547
			],
			"scale":[
				1,
				1.5878938436508179,
				1
			],
			"translation":[
				0,
				0.8412376046180725,
				0
			]
		},
		{
			"name":"sweep37",
			"rotation":[
				0,
				0.5,
				0,
				0.866025447845459
			],
			"scale":[
				1,
				1.5878938436508179,
				1
			],
			"translation":[
				0,
				0.8643251657485962,
				0
			]
		},
		{
			"name":"sweep38",
			"rotation":[
				0.03754303231835365,
				0.49952995777130127,
				0.021675478667020798,
				0.8652112483978271
			],
			"scale":[
				1,
				1.5878937244415283,
				1
			],
			"translation":[
				0,
				0.8283224105834961,
				-0.08499129116535187
			]
		},
		{
			"name":"sweep39",
			"rotation":[
				-0.04382117837667465,
				0.52217036485672,
				0.12105320394039154,
				0.8430681824684143
			],
			"scale":[
				1,
				1.587894082069397,
				1
			],
			"translation":[
				-0.20171892642974854,
				0.8748688697814941,
				0.17504049837589264
			]
		},
		{
			"name":"sweep78",
			"rotation":[
				-0.17839936912059784,
				0.2519192397594452,
				-0.12930910289287567,
				0.9423320889472961
			],
			"scale":[
				1,
				1.587894082069397,
				1
			],
			"translation":[
				-0.19181469082832336,
				1.0707964897155762,
				0.038103025406599045
			]
		},
		{
			"name":"sweep79",
			"rotation":[
				-0.04028961434960365,
				-0.9541507959365845,
				-0.15036286413669586,
				0.2556638717651367
			],
			"scale":[
				1,
				1.5878937244415283,
				1
			],
			"translation":[
				0.007533782161772251,
				1.0469173192977905,
				-0.2741033434867859
			]
		},
		{
			"name":"sweep80",
			"rotation":[
				-0.11087305843830109,
				0.5121419429779053,
				0.011189485900104046,
				0.8516411185264587
			],
			"scale":[
				1,
				1.5878938436508179,
				1
			],
			"translation":[
				-0.2821570634841919,
				1.055347204208374,
				0.3673829436302185
			]
		},
		{
			"name":"sweep81",
			"rotation":[
				0,
				0.5,
				0,
				0.866025447845459
			],
			"scale":[
				1,
				1.5878938436508179,
				1
			],
			"translation":[
				0.017815986648201942,
				0.8888198137283325,
				-0.08237574249505997
			]
		},
		{
			"name":"sweep89",
			"rotation":[
				0,
				0,
				-0.13924406468868256,
				0.9902580976486206
			],
			"scale":[
				1,
				1.5878938436508179,
				1
			],
			"translation":[
				-0.08622004836797714,
				0.948124349117279,
				-0.14839324355125427
			]
		},
		{
			"name":"sweep92",
			"rotation":[
				0,
				-0.8249485492706299,
				0,
				0.565207839012146
			],
			"scale":[
				1,
				1.5878938436508179,
				1
			],
			"translation":[
				-0.08074509352445602,
				0.8412376046180725,
				0
			]
		},
		{
			"name":"sweep93",
			"rotation":[
				0.029148124158382416,
				-0.965596079826355,
				0.025236818939447403,
				0.25717252492904663
			],
			"scale":[
				1,
				1.5878938436508179,
				1
			],
			"translation":[
				0,
				0.8283224105834961,
				-0.043155740946531296
			]
		},
		{
			"name":"pSphere3",
			"rotation":[
				-0.09354394674301147,
				0.009250367991626263,
				-0.09797222912311554,
				0.9907398223876953
			],
			"scale":[
				0.2639978528022766,
				0.06292439252138138,
				0.263997882604599
			],
			"translation":[
				0.20334355533123016,
				0.9630237221717834,
				-0.20200781524181366
			]
		},
		{
			"name":"pSphere4",
			"rotation":[
				-0.15093497931957245,
				0.259708434343338,
				0.1513482630252838,
				0.9417344927787781
			],
			"scale":[
				0.2639978528022766,
				0.06292439252138138,
				0.2639978528022766
			],
			"translation":[
				-0.19574272632598877,
				0.9825333952903748,
				-0.24766355752944946
			]
		},
		{
			"mesh":0,
			"name":"Circle.004_Material.001_0",
			"translation":[
				0.07457350194454193,
				-0.015167992562055588,
				0.09551016241312027
			]
		},
		{
			"children":[
				32
			],
			"name":"Circle.004",
			"rotation":[
				-0.70710688829422,
				0,
				0,
				0.7071066498756409
			],
			"scale":[
				100,
				99.99999237060547,
				99.99999237060547
			]
		},
		{
			"name":"Circle.005",
			"rotation":[
				-0.70710688829422,
				0,
				0,
				0.7071066498756409
			],
			"scale":[
				100,
				99.99999237060547,
				99.99999237060547
			]
		},
		{
			"name":"Plane.004",
			"rotation":[
				-0.70710688829422,
				0,
				0,
				0.7071066498756409
			],
			"scale":[
				100,
				99.99999237060547,
				99.99999237060547
			]
		},
		{
			"name":"Sphere.007",
			"rotation":[
				-0.70710688829422,
				0,
				0,
				0.7071066498756409
			],
			"scale":[
				100,
				99.99999237060547,
				99.99999237060547
			]
		},
		{
			"name":"Sphere.008",
			"rotation":[
				-0.70710688829422,
				0,
				0,
				0.7071066498756409
			],
			"scale":[
				100,
				99.99999237060547,
				99.99999237060547
			]
		},
		{
			"children":[
				33,
				34,
				35,
				36,
				37
			],
			"name":"RootNode"
		},
		{
			"children":[
				38
			],
			"name":"524ac7ed7c914a848fee46f4cccfeac4.fbx",
			"rotation":[
				0.70710688829422,
				0,
				0,
				0.7071066498756409
			],
			"scale":[
				0.009999999776482582,
				0.010000000707805157,
				0.010000000707805157
			]
		},
		{
			"children":[
				39
			],
			"name":"Sketchfab_model",
			"rotation":[
				-0.70710688829422,
				0,
				0,
				0.7071066498756409
			]
		}
	],
	"materials":[
		{
			"alphaCutoff":1,
			"alphaMode":"MASK",
			"doubleSided":true,
			"extensions":{
				"KHR_materials_unlit":{}
			},
			"name":"Material.011",
			"pbrMetallicRoughness":{
				"baseColorTexture":{
					"index":0
				},
				"metallicFactor":0,
				"roughnessFactor":0.9
			}
		}
	],
	"meshes":[
		{
			"name":"Circle.004_Material.001_0",
			"primitives":[
				{
					"attributes":{
						"POSITION":0,
						"NORMAL":1,
						"TEXCOORD_0":2
					},
					"indices":3,
					"material":0
				}
			]
		}
	],
	"textures":[
		{
			"sampler":0,
			"source":0
		}
	],
	"images":[
		{
			"mimeType":"image/png",
			"name":"Material.001_baseColor",
			"uri":"Material.001_baseColor.png"
		}
	],
	"accessors":[
		{
			"bufferView":0,
			"componentType":5126,
			"count":50,
			"max":[
				0.8410838842391968,
				0.8791460394859314,
				0.10802634060382843
			],
			"min":[
				-0.9110622406005859,
				-0.8711026310920715,
				-0.10903429985046387
			],
			"type":"VEC3"
		},
		{
			"bufferView":1,
			"componentType":5126,
			"count":50,
			"type":"VEC3"
		},
		{
			"bufferView":2,
			"componentType":5126,
			"count":50,
			"type":"VEC2"
		},
		{
			"bufferView":3,
			"componentType":5123,
			"count":132,
			"type":"SCALAR"
		}
	],
	"bufferViews":[
		{
			"buffer":0,
			"byteLength":600,
			"byteOffset":0,
			"target":34962
		},
		{
			"buffer":0,
			"byteLength":600,
			"byteOffset":600,
			"target":34962
		},
		{
			"buffer":0,
			"byteLength":400,
			"byteOffset":1200,
			"target":34962
		},
		{
			"buffer":0,
			"byteLength":264,
			"byteOffset":1600,
			"target":34963
		}
	],
	"samplers":[
		{
			"magFilter":9729,
			"minFilter":9987
		}
	],
	"buffers":[
		{
			"byteLength":1864,
			"uri":"scene.bin"
		}
	]
}
