{
	"asset":{
		"generator":"Khronos glTF Blender I/O v5.1.18",
		"version":"2.0"
	},
	"extensionsUsed":[
		"KHR_materials_unlit"
	],
	"scene":0,
	"scenes":[
		{
			"name":"Scene",
			"nodes":[
				1,
				2
			]
		}
	],
	"nodes":[
		{
			"name":"Object_4",
			"translation":[
				-4.1961669921875e-05,
				5.53131103515625e-05,
				0
			]
		},
		{
			"children":[
				0
			],
			"name":"CINEMA_4D_Editor",
			"rotation":[
				0.06633269041776657,
				-0.9792999029159546,
				-0.012923804111778736,
				0.19080008566379547
			],
			"translation":[
				966.09765625,
				196.2276611328125,
				-474.0234680175781
			]
		},
		{
			"mesh":0,
			"name":"Object_2",
			"rotation":[
				-0.33465009927749634,
				0.05554904416203499,
				-0.2863089144229889,
				0.8960752487182617
			],
			"scale":[
				0.034829240292310715,
				0.03482924774289131,
				0.034829236567020416
			],
			"translation":[
				0.015025049448013306,
				0.2557448148727417,
				0.08016681671142578
			]
		}
	],
	"materials":[
		{
			"doubleSided":true,
			"extensions":{
				"KHR_materials_unlit":{}
			},
			"name":"material_0",
			"pbrMetallicRoughness":{
				"baseColorTexture":{
					"index":0
				},
				"metallicFactor":0,
				"roughnessFactor":0.9
			}
		}
	],
	"meshes":[
		{
			"name":"Object_0",
			"primitives":[
				{
					"attributes":{
						"POSITION":0,
						"NORMAL":1,
						"TEXCOORD_0":2
					},
					"indices":3,
					"material":0
				}
			]
		}
	],
	"textures":[
		{
			"sampler":0,
			"source":0
		}
	],
	"images":[
		{
			"mimeType":"image/jpeg",
			"name":"material_0_baseColor",
			"uri":"material_0_baseColor.jpg"
		}
	],
	"accessors":[
		{
			"bufferView":0,
			"componentType":5126,
			"count":16340,
			"max":[
				25.316579818725586,
				16.582868576049805,
				22.74190330505371
			],
			"min":[
				-22.05653190612793,
				-18.453205108642578,
				-19.319639205932617
			],
			"type":"VEC3"
		},
		{
			"bufferView":1,
			"componentType":5126,
			"count":16340,
			"type":"VEC3"
		},
		{
			"bufferView":2,
			"componentType":5126,
			"count":16340,
			"type":"VEC2"
		},
		{
			"bufferView":3,
			"componentType":5123,
			"count":30000,
			"type":"SCALAR"
		}
	],
	"bufferViews":[
		{
			"buffer":0,
			"byteLength":196080,
			"byteOffset":0,
			"target":34962
		},
		{
			"buffer":0,
			"byteLength":196080,
			"byteOffset":196080,
			"target":34962
		},
		{
			"buffer":0,
			"byteLength":130720,
			"byteOffset":392160,
			"target":34962
		},
		{
			"buffer":0,
			"byteLength":60000,
			"byteOffset":522880,
			"target":34963
		}
	],
	"samplers":[
		{
			"magFilter":9729,
			"minFilter":9987
		}
	],
	"buffers":[
		{
			"byteLength":582880,
			"uri":"scene.bin"
		}
	]
}
