{
  "accessors": [
    {
      "bufferView": 2,
      "componentType": 5126,
      "count": 38414,
      "max": [
        0.08314217627048492,
        0.12869124114513397,
        0.08097745478153229
      ],
      "min": [
        -0.08811921626329422,
        -1.392900594510138e-05,
        -0.0983012318611145
      ],
      "type": "VEC3"
    },
    {
      "bufferView": 2,
      "byteOffset": 460968,
      "componentType": 5126,
      "count": 38414,
      "max": [
        0.9998843669891357,
        0.9999566078186035,
        0.9998871088027954
      ],
      "min": [
        -0.999995231628418,
        -0.9999964833259583,
        -0.9998356103897095
      ],
      "type": "VEC3"
    },
    {
      "bufferView": 1,
      "componentType": 5126,
      "count": 38414,
      "max": [
        0.9997424483299255,
        0.9938963651657104
      ],
      "min": [
        0.000244140625,
        9.21487808227539e-05
      ],
      "type": "VEC2"
    },
    {
      "bufferView": 0,
      "componentType": 5125,
      "count": 124422,
      "type": "SCALAR"
    }
  ],
  "asset": {
    "extras": {
      "author": "onecirclefilms (https://sketchfab.com/onecirclefilms)",
      "license": "CC-BY-4.0 (http://creativecommons.org/licenses/by/4.0/)",
      "source": "https://sketchfab.com/3d-models/african-cabbage-ce4fdcfdd87b43e98a1444fd9b3328e5",
      "title": "African Cabbage"
    },
    "generator": "Sketchfab-15.42.0",
    "version": "2.0"
  },
  "bufferViews": [
    {
      "buffer": 0,
      "byteLength": 497688,
      "name": "floatBufferViews",
      "target": 34963
    },
    {
      "buffer": 0,
      "byteLength": 307312,
      "byteOffset": 497688,
      "byteStride": 8,
      "name": "floatBufferViews",
      "target": 34962
    },
    {
      "buffer": 0,
      "byteLength": 921936,
      "byteOffset": 805000,
      "byteStride": 12,
      "name": "floatBufferViews",
      "target": 34962
    }
  ],
  "buffers": [
    {
      "byteLength": 1726936,
      "uri": "scene.bin"
    }
  ],
  "images": [
    {
      "uri": "textures/material_baseColor.jpeg"
    }
  ],
  "materials": [
    {
      "doubleSided": true,
      "name": "material",
      "pbrMetallicRoughness": {
        "baseColorTexture": {
          "index": 0
        },
        "metallicFactor": 0.0,
        "roughnessFactor": 0.9524317153998911
      }
    }
  ],
  "meshes": [
    {
      "name": "default_Mat_0",
      "primitives": [
        {
          "attributes": {
            "NORMAL": 1,
            "POSITION": 0,
            "TEXCOORD_0": 2
          },
          "indices": 3,
          "material": 0,
          "mode": 4
        }
      ]
    }
  ],
  "nodes": [
    {
      "children": [
        1
      ],
      "matrix": [
        1.0,
        0.0,
        0.0,
        0.0,
        0.0,
        2.220446049250313e-16,
        -1.0,
        0.0,
        0.0,
        1.0,
        2.220446049250313e-16,
        0.0,
        0.0,
        0.0,
        0.0,
        1.0
      ],
      "name": "Sketchfab_model"
    },
    {
      "children": [
        2
      ],
      "matrix": [
        0.009999999776482582,
        0.0,
        0.0,
        0.0,
        0.0,
        0.0,
        0.009999999776482582,
        0.0,
        0.0,
        -0.009999999776482582,
        0.0,
        0.0,
        0.0,
        0.0,
        0.0,
        1.0
      ],
      "name": "Cabbage1.fbx"
    },
    {
      "children": [
        3,
        5
      ],
      "name": "RootNode"
    },
    {
      "children": [
        4
      ],
      "matrix": [
        -0.9183905923878988,
        -0.134850930273723,
        0.3719864868751495,
        0.0,
        -0.1249874741524061,
        0.9908658973868822,
        0.05062513901897077,
        0.0,
        -0.3754155712252835,
        1.8041124150158794e-16,
        -0.9268565956401205,
        0.0,
        966.09765625,
        196.2276611328125,
        -474.0234680175781,
        1.0
      ],
      "name": "CINEMA_4D_Editor"
    },
    {
      "name": "Object_4"
    },
    {
      "children": [
        6
      ],
      "matrix": [
        2000.0,
        0.0,
        0.0,
        0.0,
        0.0,
        2000.0,
        0.0,
        0.0,
        0.0,
        0.0,
        2000.0,
        0.0,
        -0.12582378089427948,
        18.974655151367188,
        -0.22472894191741943,
        1.0
      ],
      "name": "default"
    },
    {
      "mesh": 0,
      "name": "default_Mat_0"
    }
  ],
  "samplers": [
    {
      "magFilter": 9729,
      "minFilter": 9987,
      "wrapS": 10497,
      "wrapT": 10497
    }
  ],
  "scene": 0,
  "scenes": [
    {
      "name": "Sketchfab_Scene",
      "nodes": [
        0
      ]
    }
  ],
  "textures": [
    {
      "sampler": 0,
      "source": 0
    }
  ]
}
