{
	"asset":{
		"generator":"Khronos glTF Blender I/O v5.1.18",
		"version":"2.0"
	},
	"scene":0,
	"scenes":[
		{
			"name":"Scene",
			"nodes":[
				5
			]
		}
	],
	"nodes":[
		{
			"mesh":0,
			"name":"Object_4",
			"translation":[
				0.0708036869764328,
				3.786372661590576,
				-0.15741799771785736
			]
		},
		{
			"mesh":1,
			"name":"Object_5",
			"translation":[
				0.10757763683795929,
				0.3231261372566223,
				-0.4924759268760681
			]
		},
		{
			"children":[
				0,
				1
			],
			"name":"node-0_0"
		},
		{
			"children":[
				2
			],
			"name":"GLTF_SceneRootNode",
			"rotation":[
				0.70710688829422,
				0,
				0,
				0.7071066498756409
			]
		},
		{
			"children":[
				3
			],
			"name":"root"
		},
		{
			"children":[
				4
			],
			"name":"Sketchfab_model",
			"rotation":[
				-0.639640212059021,
				0.7519561052322388,
				0.10977479070425034,
				0.1156369298696518
			],
			"scale":[
				0.22917139530181885,
				0.22808413207530975,
				0.2186993509531021
			],
			"translation":[
				0.026371177285909653,
				0.36606383323669434,
				0.7414333820343018
			]
		}
	],
	"materials":[
		{
			"doubleSided":true,
			"name":"4CAF50",
			"pbrMetallicRoughness":{
				"baseColorFactor":[
					0.2980389893054962,
					0.6862750053405762,
					0.313726007938385,
					1
				],
				"metallicFactor":0,
				"roughnessFactor":0.7448019981384277
			}
		},
		{
			"doubleSided":true,
			"name":"8BC34A",
			"pbrMetallicRoughness":{
				"baseColorFactor":[
					0.5450980067253113,
					0.764706015586853,
					0.2901960015296936,
					1
				],
				"metallicFactor":0,
				"roughnessFactor":0.7448019981384277
			}
		}
	],
	"meshes":[
		{
			"name":"Object_0",
			"primitives":[
				{
					"attributes":{
						"POSITION":0,
						"NORMAL":1,
						"TEXCOORD_0":2
					},
					"indices":3,
					"material":0
				}
			]
		},
		{
			"name":"Object_1",
			"primitives":[
				{
					"attributes":{
						"POSITION":4,
						"NORMAL":5,
						"TEXCOORD_0":6
					},
					"indices":7,
					"material":1
				}
			]
		}
	],
	"accessors":[
		{
			"bufferView":0,
			"componentType":5126,
			"count":2201,
			"max":[
				4.731382846832275,
				3.799166679382324,
				4.23258638381958
			],
			"min":[
				-4.0580220222473145,
				-2.5143790245056152,
				-4.5815205574035645
			],
			"type":"VEC3"
		},
		{
			"bufferView":1,
			"componentType":5126,
			"count":2201,
			"type":"VEC3"
		},
		{
			"bufferView":2,
			"componentType":5126,
			"count":2201,
			"type":"VEC2"
		},
		{
			"bufferView":3,
			"componentType":5123,
			"count":2268,
			"type":"SCALAR"
		},
		{
			"bufferView":4,
			"componentType":5126,
			"count":430,
			"max":[
				2.5122411251068115,
				2.5228776931762695,
				2.6241605281829834
			],
			"min":[
				-2.542489767074585,
				-3.2511892318725586,
				-2.098928451538086
			],
			"type":"VEC3"
		},
		{
			"bufferView":5,
			"componentType":5126,
			"count":430,
			"type":"VEC3"
		},
		{
			"bufferView":6,
			"componentType":5126,
			"count":430,
			"type":"VEC2"
		},
		{
			"bufferView":7,
			"componentType":5123,
			"count":432,
			"type":"SCALAR"
		}
	],
	"bufferViews":[
		{
			"buffer":0,
			"byteLength":26412,
			"byteOffset":0,
			"target":34962
		},
		{
			"buffer":0,
			"byteLength":26412,
			"byteOffset":26412,
			"target":34962
		},
		{
			"buffer":0,
			"byteLength":17608,
			"byteOffset":52824,
			"target":34962
		},
		{
			"buffer":0,
			"byteLength":4536,
			"byteOffset":70432,
			"target":34963
		},
		{
			"buffer":0,
			"byteLength":5160,
			"byteOffset":74968,
			"target":34962
		},
		{
			"buffer":0,
			"byteLength":5160,
			"byteOffset":80128,
			"target":34962
		},
		{
			"buffer":0,
			"byteLength":3440,
			"byteOffset":85288,
			"target":34962
		},
		{
			"buffer":0,
			"byteLength":864,
			"byteOffset":88728,
			"target":34963
		}
	],
	"buffers":[
		{
			"byteLength":89592,
			"uri":"scene.bin"
		}
	]
}
