{
  "accessors": [
    {
      "bufferView": 2,
      "componentType": 5126,
      "count": 4678,
      "max": [
        1.2199554443359375,
        0.2217784970998764,
        0.8507962226867676
      ],
      "min": [
        -1.2202903032302856,
        -0.012035004794597626,
        -0.8507962226867676
      ],
      "type": "VEC3"
    },
    {
      "bufferView": 2,
      "byteOffset": 56136,
      "componentType": 5126,
      "count": 4678,
      "max": [
        0.9995851516723633,
        0.999996542930603,
        0.9997659921646118
      ],
      "min": [
        -0.9993624687194824,
        -0.9999998211860657,
        -0.9959344267845154
      ],
      "type": "VEC3"
    },
    {
      "bufferView": 1,
      "componentType": 5126,
      "count": 4678,
      "max": [
        0.9943596124649048,
        0.9944490790367126
      ],
      "min": [
        0.007846259512007236,
        0.007551729679107666
      ],
      "type": "VEC2"
    },
    {
      "bufferView": 1,
      "byteOffset": 37424,
      "componentType": 5126,
      "count": 4678,
      "max": [
        0.9943596124649048,
        0.9944490790367126
      ],
      "min": [
        0.007846259512007236,
        0.007551729679107666
      ],
      "type": "VEC2"
    },
    {
      "bufferView": 1,
      "byteOffset": 74848,
      "componentType": 5126,
      "count": 4678,
      "max": [
        0.9943596124649048,
        0.9944490790367126
      ],
      "min": [
        0.007846259512007236,
        0.007551729679107666
      ],
      "type": "VEC2"
    },
    {
      "bufferView": 0,
      "componentType": 5125,
      "count": 25506,
      "type": "SCALAR"
    }
  ],
  "asset": {
    "extras": {
      "author": "Sufi_Artist (https://sketchfab.com/Sufi_Artist)",
      "license": "CC-BY-4.0 (http://creativecommons.org/licenses/by/4.0/)",
      "source": "https://sketchfab.com/3d-models/delicious-pizza-slice-3d-model-caea3141222e493bb0aa169122a84dbf",
      "title": "\"Delicious Pizza Slice – 3D Model\""
    },
    "generator": "Sketchfab-16.45.0",
    "version": "2.0"
  },
  "bufferViews": [
    {
      "buffer": 0,
      "byteLength": 102024,
      "name": "floatBufferViews",
      "target": 34963
    },
    {
      "buffer": 0,
      "byteLength": 112272,
      "byteOffset": 102024,
      "byteStride": 8,
      "name": "floatBufferViews",
      "target": 34962
    },
    {
      "buffer": 0,
      "byteLength": 112272,
      "byteOffset": 214296,
      "byteStride": 12,
      "name": "floatBufferViews",
      "target": 34962
    }
  ],
  "buffers": [
    {
      "byteLength": 326568,
      "uri": "scene.bin"
    }
  ],
  "extensionsRequired": [
    "KHR_materials_pbrSpecularGlossiness"
  ],
  "extensionsUsed": [
    "KHR_materials_pbrSpecularGlossiness"
  ],
  "images": [
    {
      "uri": "textures/material_diffuse.png"
    },
    {
      "uri": "textures/material_specularGlossiness.png"
    }
  ],
  "materials": [
    {
      "doubleSided": true,
      "extensions": {
        "KHR_materials_pbrSpecularGlossiness": {
          "diffuseFactor": [
            1.0,
            1.0,
            1.0,
            1.0
          ],
          "diffuseTexture": {
            "index": 0
          },
          "glossinessFactor": 1.0,
          "specularFactor": [
            1.0,
            1.0,
            1.0
          ],
          "specularGlossinessTexture": {
            "index": 1
          }
        }
      },
      "name": "material"
    }
  ],
  "meshes": [
    {
      "name": "Object_0",
      "primitives": [
        {
          "attributes": {
            "NORMAL": 1,
            "POSITION": 0,
            "TEXCOORD_0": 2,
            "TEXCOORD_1": 3,
            "TEXCOORD_2": 4
          },
          "indices": 5,
          "material": 0,
          "mode": 4
        }
      ]
    }
  ],
  "nodes": [
    {
      "children": [
        1
      ],
      "matrix": [
        1.0,
        0.0,
        0.0,
        0.0,
        0.0,
        2.220446049250313e-16,
        -1.0,
        0.0,
        0.0,
        1.0,
        2.220446049250313e-16,
        0.0,
        0.0,
        0.0,
        0.0,
        1.0
      ],
      "name": "Sketchfab_model"
    },
    {
      "children": [
        2
      ],
      "name": "root"
    },
    {
      "children": [
        3
      ],
      "matrix": [
        1.0,
        0.0,
        0.0,
        0.0,
        0.0,
        2.220446049250313e-16,
        1.0,
        0.0,
        0.0,
        -1.0,
        2.220446049250313e-16,
        0.0,
        0.0,
        0.0,
        0.0,
        1.0
      ],
      "name": "GLTF_SceneRootNode"
    },
    {
      "children": [
        4
      ],
      "name": "root_0"
    },
    {
      "children": [
        5
      ],
      "matrix": [
        0.463152676820755,
        0.0,
        0.0,
        0.0,
        0.0,
        0.3928857406568102,
        0.24525746561691467,
        0.0,
        0.0,
        -0.24525746561691467,
        0.3928857406568102,
        0.0,
        -0.0021107017528265715,
        -0.037588365375995636,
        0.33517396450042725,
        1.0
      ],
      "name": "node_id44_1"
    },
    {
      "mesh": 0,
      "name": "Object_5"
    }
  ],
  "samplers": [
    {
      "magFilter": 9729,
      "minFilter": 9987,
      "wrapS": 10497,
      "wrapT": 10497
    }
  ],
  "scene": 0,
  "scenes": [
    {
      "name": "Sketchfab_Scene",
      "nodes": [
        0
      ]
    }
  ],
  "textures": [
    {
      "sampler": 0,
      "source": 0
    },
    {
      "sampler": 0,
      "source": 1
    }
  ]
}
