{
	"asset":{
		"generator":"Khronos glTF Blender I/O v5.1.18",
		"version":"2.0"
	},
	"extensionsUsed":[
		"KHR_materials_specular",
		"KHR_materials_ior"
	],
	"scene":0,
	"scenes":[
		{
			"name":"Scene",
			"nodes":[
				0,
				2,
				8
			]
		}
	],
	"nodes":[
		{
			"name":"Cube",
			"rotation":[
				-0.70710688829422,
				0,
				0,
				0.7071066498756409
			],
			"scale":[
				2.3970906734466553,
				2.397090435028076,
				2.397090435028076
			],
			"translation":[
				1.5738213062286377,
				3.450301170349121,
				-53.104434967041016
			]
		},
		{
			"name":"Object_4",
			"translation":[
				-4.00543212890625e-05,
				2.86102294921875e-05,
				-7.62939453125e-06
			]
		},
		{
			"children":[
				1
			],
			"name":"CINEMA_4D_Editor",
			"rotation":[
				0.06633269041776657,
				-0.9792999029159546,
				-0.01292380690574646,
				0.19080008566379547
			],
			"translation":[
				966.09765625,
				196.2276611328125,
				-474.0234680175781
			]
		},
		{
			"mesh":0,
			"name":"Object_5",
			"rotation":[
				0.0006978025194257498,
				-0.10763967037200928,
				-0.003693379694595933,
				0.9941828846931458
			],
			"translation":[
				-0.0055234781466424465,
				-0.00030358642106875777,
				0.14296755194664001
			]
		},
		{
			"children":[
				3
			],
			"name":"slice_of_pizza.1_1"
		},
		{
			"children":[
				4
			],
			"name":"RootNode.0_0",
			"scale":[
				0.009999999776482582,
				0.009999999776482582,
				0.009999999776482582
			]
		},
		{
			"children":[
				5
			],
			"name":"GLTF_SceneRootNode",
			"rotation":[
				0.70710688829422,
				0,
				0,
				0.7071066498756409
			]
		},
		{
			"children":[
				6
			],
			"name":"root"
		},
		{
			"children":[
				7
			],
			"name":"Sketchfab_model",
			"rotation":[
				-0.5505043864250183,
				-0.4244473874568939,
				-0.45760124921798706,
				0.554427981376648
			],
			"scale":[
				75.33232879638672,
				75.33233642578125,
				75.33232879638672
			],
			"translation":[
				0.18906912207603455,
				0.0011461596004664898,
				-0.011636070907115936
			]
		}
	],
	"materials":[
		{
			"doubleSided":true,
			"extensions":{
				"KHR_materials_specular":{
					"specularColorTexture":{
						"index":0
					}
				},
				"KHR_materials_ior":{
					"ior":1000
				}
			},
			"name":"material_0.001",
			"normalTexture":{
				"index":1
			},
			"occlusionTexture":{
				"index":2
			},
			"pbrMetallicRoughness":{
				"baseColorTexture":{
					"index":3
				},
				"metallicFactor":0,
				"metallicRoughnessTexture":{
					"index":4
				}
			}
		}
	],
	"meshes":[
		{
			"name":"Object_0.004",
			"primitives":[
				{
					"attributes":{
						"POSITION":0,
						"NORMAL":1,
						"TEXCOORD_0":2,
						"TEXCOORD_1":3,
						"TEXCOORD_2":4,
						"TEXCOORD_3":5,
						"TEXCOORD_4":6
					},
					"indices":7,
					"material":0
				}
			]
		}
	],
	"textures":[
		{
			"sampler":0,
			"source":0
		},
		{
			"sampler":0,
			"source":1
		},
		{
			"sampler":0,
			"source":2
		},
		{
			"sampler":0,
			"source":3
		},
		{
			"sampler":0,
			"source":4
		}
	],
	"images":[
		{
			"mimeType":"image/png",
			"name":"material_0_specularGlossiness",
			"uri":"material_0_specularGlossiness.png"
		},
		{
			"mimeType":"image/png",
			"name":"material_0_normal",
			"uri":"material_0_normal.png"
		},
		{
			"mimeType":"image/png",
			"name":"material_0_occlusion",
			"uri":"material_0_occlusion.png"
		},
		{
			"mimeType":"image/png",
			"name":"material_0_diffuse",
			"uri":"material_0_diffuse.png"
		},
		{
			"mimeType":"image/png",
			"name":"material_0_specularGlossiness",
			"uri":"material_0_specularGlossiness-1.png"
		}
	],
	"accessors":[
		{
			"bufferView":0,
			"componentType":5126,
			"count":4687,
			"max":[
				1.2199554443359375,
				0.2217784970998764,
				0.8507962226867676
			],
			"min":[
				-1.2202903032302856,
				-0.012035004794597626,
				-0.8507962226867676
			],
			"type":"VEC3"
		},
		{
			"bufferView":1,
			"componentType":5126,
			"count":4687,
			"type":"VEC3"
		},
		{
			"bufferView":2,
			"componentType":5126,
			"count":4687,
			"type":"VEC2"
		},
		{
			"bufferView":3,
			"componentType":5126,
			"count":4687,
			"type":"VEC2"
		},
		{
			"bufferView":4,
			"componentType":5126,
			"count":4687,
			"type":"VEC2"
		},
		{
			"bufferView":5,
			"componentType":5126,
			"count":4687,
			"type":"VEC2"
		},
		{
			"bufferView":6,
			"componentType":5126,
			"count":4687,
			"type":"VEC2"
		},
		{
			"bufferView":7,
			"componentType":5123,
			"count":25506,
			"type":"SCALAR"
		}
	],
	"bufferViews":[
		{
			"buffer":0,
			"byteLength":56244,
			"byteOffset":0,
			"target":34962
		},
		{
			"buffer":0,
			"byteLength":56244,
			"byteOffset":56244,
			"target":34962
		},
		{
			"buffer":0,
			"byteLength":37496,
			"byteOffset":112488,
			"target":34962
		},
		{
			"buffer":0,
			"byteLength":37496,
			"byteOffset":149984,
			"target":34962
		},
		{
			"buffer":0,
			"byteLength":37496,
			"byteOffset":187480,
			"target":34962
		},
		{
			"buffer":0,
			"byteLength":37496,
			"byteOffset":224976,
			"target":34962
		},
		{
			"buffer":0,
			"byteLength":37496,
			"byteOffset":262472,
			"target":34962
		},
		{
			"buffer":0,
			"byteLength":51012,
			"byteOffset":299968,
			"target":34963
		}
	],
	"samplers":[
		{
			"magFilter":9729,
			"minFilter":9987
		}
	],
	"buffers":[
		{
			"byteLength":350980,
			"uri":"scene.bin"
		}
	]
}
