{
	"asset":{
		"generator":"Khronos glTF Blender I/O v5.1.18",
		"version":"2.0"
	},
	"scene":0,
	"scenes":[
		{
			"name":"Scene",
			"nodes":[
				5
			]
		}
	],
	"nodes":[
		{
			"mesh":0,
			"name":"Object_2",
			"translation":[
				0,
				0,
				-0.407548189163208
			]
		},
		{
			"mesh":1,
			"name":"Object_3",
			"translation":[
				0,
				0,
				-0.407548189163208
			]
		},
		{
			"mesh":2,
			"name":"Object_4",
			"translation":[
				0,
				0,
				-0.407548189163208
			]
		},
		{
			"mesh":3,
			"name":"Object_5",
			"translation":[
				0,
				0,
				-0.407548189163208
			]
		},
		{
			"children":[
				0,
				1,
				2,
				3
			],
			"name":"kat-Banana-slice.obj.cleaner.materialmerger.gles"
		},
		{
			"children":[
				4
			],
			"name":"Sketchfab_model",
			"rotation":[
				0.520761251449585,
				0.4880557656288147,
				-0.48756033182144165,
				0.5028859376907349
			],
			"translation":[
				0,
				3.766859531402588,
				0
			]
		}
	],
	"materials":[
		{
			"doubleSided":true,
			"name":"ABS_Wei",
			"pbrMetallicRoughness":{
				"baseColorFactor":[
					0.9386857151985168,
					0.8148465752601624,
					0.5149176716804504,
					1
				],
				"metallicFactor":0
			}
		},
		{
			"doubleSided":true,
			"name":"ABS_Wei_2",
			"pbrMetallicRoughness":{
				"baseColorFactor":[
					0.8962693810462952,
					0.7991027235984802,
					0.5520114302635193,
					1
				],
				"metallicFactor":0
			}
		},
		{
			"doubleSided":true,
			"name":"ABS_Wei_1",
			"pbrMetallicRoughness":{
				"baseColorFactor":[
					0.8307698965072632,
					0.6653872728347778,
					0.35640013217926025,
					1
				],
				"metallicFactor":0
			}
		},
		{
			"doubleSided":true,
			"name":"ABS_Wei_3",
			"pbrMetallicRoughness":{
				"baseColorFactor":[
					0.5149176716804504,
					0.3324515223503113,
					0.03071344457566738,
					1
				],
				"metallicFactor":0
			}
		}
	],
	"meshes":[
		{
			"name":"Object_0",
			"primitives":[
				{
					"attributes":{
						"POSITION":0,
						"NORMAL":1
					},
					"indices":2,
					"material":0
				}
			]
		},
		{
			"name":"Object_1",
			"primitives":[
				{
					"attributes":{
						"POSITION":3,
						"NORMAL":4
					},
					"indices":5,
					"material":1
				}
			]
		},
		{
			"name":"Object_2",
			"primitives":[
				{
					"attributes":{
						"POSITION":6,
						"NORMAL":7
					},
					"indices":8,
					"material":2
				}
			]
		},
		{
			"name":"Object_3",
			"primitives":[
				{
					"attributes":{
						"POSITION":9,
						"NORMAL":10
					},
					"indices":11,
					"material":3
				}
			]
		}
	],
	"accessors":[
		{
			"bufferView":0,
			"componentType":5126,
			"count":328,
			"max":[
				9.970649719238281,
				9.99266242980957,
				4
			],
			"min":[
				-10.000007629394531,
				-9.99266242980957,
				-3.999999761581421
			],
			"type":"VEC3"
		},
		{
			"bufferView":1,
			"componentType":5126,
			"count":328,
			"type":"VEC3"
		},
		{
			"bufferView":2,
			"componentType":5123,
			"count":984,
			"type":"SCALAR"
		},
		{
			"bufferView":3,
			"componentType":5126,
			"count":560,
			"max":[
				9.542016983032227,
				9.657838821411133,
				4
			],
			"min":[
				-9.829524993896484,
				-9.727924346923828,
				-4
			],
			"type":"VEC3"
		},
		{
			"bufferView":4,
			"componentType":5126,
			"count":560,
			"type":"VEC3"
		},
		{
			"bufferView":5,
			"componentType":5123,
			"count":1704,
			"type":"SCALAR"
		},
		{
			"bufferView":6,
			"componentType":5126,
			"count":1291,
			"max":[
				4.375577926635742,
				4.422456741333008,
				4
			],
			"min":[
				-4.429027557373047,
				-4.740189075469971,
				-4
			],
			"type":"VEC3"
		},
		{
			"bufferView":7,
			"componentType":5126,
			"count":1291,
			"type":"VEC3"
		},
		{
			"bufferView":8,
			"componentType":5123,
			"count":4350,
			"type":"SCALAR"
		},
		{
			"bufferView":9,
			"componentType":5126,
			"count":643,
			"max":[
				2.1648902893066406,
				2.597229242324829,
				4.000000953674316
			],
			"min":[
				-2.6579933166503906,
				-2.445936679840088,
				-3.9999992847442627
			],
			"type":"VEC3"
		},
		{
			"bufferView":10,
			"componentType":5126,
			"count":643,
			"type":"VEC3"
		},
		{
			"bufferView":11,
			"componentType":5123,
			"count":2310,
			"type":"SCALAR"
		}
	],
	"bufferViews":[
		{
			"buffer":0,
			"byteLength":3936,
			"byteOffset":0,
			"target":34962
		},
		{
			"buffer":0,
			"byteLength":3936,
			"byteOffset":3936,
			"target":34962
		},
		{
			"buffer":0,
			"byteLength":1968,
			"byteOffset":7872,
			"target":34963
		},
		{
			"buffer":0,
			"byteLength":6720,
			"byteOffset":9840,
			"target":34962
		},
		{
			"buffer":0,
			"byteLength":6720,
			"byteOffset":16560,
			"target":34962
		},
		{
			"buffer":0,
			"byteLength":3408,
			"byteOffset":23280,
			"target":34963
		},
		{
			"buffer":0,
			"byteLength":15492,
			"byteOffset":26688,
			"target":34962
		},
		{
			"buffer":0,
			"byteLength":15492,
			"byteOffset":42180,
			"target":34962
		},
		{
			"buffer":0,
			"byteLength":8700,
			"byteOffset":57672,
			"target":34963
		},
		{
			"buffer":0,
			"byteLength":7716,
			"byteOffset":66372,
			"target":34962
		},
		{
			"buffer":0,
			"byteLength":7716,
			"byteOffset":74088,
			"target":34962
		},
		{
			"buffer":0,
			"byteLength":4620,
			"byteOffset":81804,
			"target":34963
		}
	],
	"buffers":[
		{
			"byteLength":86424,
			"uri":"scene.bin"
		}
	]
}
