{
	"asset":{
		"generator":"Khronos glTF Blender I/O v5.1.18",
		"version":"2.0"
	},
	"scene":0,
	"scenes":[
		{
			"name":"Scene",
			"nodes":[
				1,
				5,
				7,
				9,
				14
			]
		}
	],
	"nodes":[
		{
			"name":"Object_4",
			"translation":[
				-4.00543212890625e-05,
				4.00543212890625e-05,
				0
			]
		},
		{
			"children":[
				0
			],
			"name":"CINEMA_4D_Editor",
			"rotation":[
				0.06633269041776657,
				-0.9792999029159546,
				-0.01292380504310131,
				0.19080008566379547
			],
			"translation":[
				966.09765625,
				196.2276611328125,
				-474.0234680175781
			]
		},
		{
			"name":"Retopo_body.001",
			"rotation":[
				-0.7071069478988647,
				0,
				0,
				0.7071065902709961
			],
			"scale":[
				100.00003051757812,
				100,
				100.00001525878906
			]
		},
		{
			"children":[
				2
			],
			"name":"RootNode"
		},
		{
			"children":[
				3
			],
			"name":"fb3b626fb78a42548c2c3acb12cd0f63.fbx",
			"rotation":[
				0.7071068286895752,
				0,
				0,
				0.7071067094802856
			],
			"scale":[
				0.009999999776482582,
				0.010000002570450306,
				0.010000004433095455
			]
		},
		{
			"children":[
				4
			],
			"name":"Sketchfab_model",
			"rotation":[
				0.05241530388593674,
				-0.7108919024467468,
				0.05328274145722389,
				0.699318528175354
			]
		},
		{
			"name":"ca134f1b9916474b989866f474552998.obj.cleaner.materialmerger.gles"
		},
		{
			"children":[
				6
			],
			"name":"Sketchfab_model.001",
			"rotation":[
				-0.6707010865211487,
				0.18656708300113678,
				0.18522034585475922,
				0.6935749650001526
			],
			"scale":[
				0.09060761332511902,
				0.0906076431274414,
				0.09060762077569962
			]
		},
		{
			"name":"Object_4.001",
			"translation":[
				-4.00543212890625e-05,
				4.00543212890625e-05,
				0
			]
		},
		{
			"children":[
				8
			],
			"name":"CINEMA_4D_Editor.001",
			"rotation":[
				0.06633269041776657,
				-0.9792999029159546,
				-0.01292380504310131,
				0.19080008566379547
			],
			"translation":[
				966.09765625,
				196.2276611328125,
				-474.0234680175781
			]
		},
		{
			"mesh":0,
			"name":"Retopo_body.001__0",
			"rotation":[
				0.0387297198176384,
				-0.010663931258022785,
				-0.036705393344163895,
				0.9985184669494629
			],
			"scale":[
				0.42361709475517273,
				0.4236171245574951,
				0.42361706495285034
			],
			"translation":[
				0.0024285288527607918,
				0.0005955500528216362,
				0.0043641249649226665
			]
		},
		{
			"children":[
				10
			],
			"name":"Retopo_body.002",
			"rotation":[
				-0.7071069478988647,
				0,
				0,
				0.7071065902709961
			],
			"scale":[
				100.00003051757812,
				100,
				100.00001525878906
			]
		},
		{
			"children":[
				11
			],
			"name":"RootNode.001"
		},
		{
			"children":[
				12
			],
			"name":"fb3b626fb78a42548c2c3acb12cd0f63.fbx.001",
			"rotation":[
				0.7071068286895752,
				0,
				0,
				0.7071067094802856
			],
			"scale":[
				0.009999999776482582,
				0.010000002570450306,
				0.010000004433095455
			]
		},
		{
			"children":[
				13
			],
			"name":"Sketchfab_model.002",
			"rotation":[
				0.05241530388593674,
				-0.7108919024467468,
				0.05328274145722389,
				0.699318528175354
			]
		}
	],
	"materials":[
		{
			"doubleSided":true,
			"name":"Scene_-_Root.001",
			"normalTexture":{
				"index":0
			},
			"pbrMetallicRoughness":{
				"baseColorTexture":{
					"index":1
				},
				"metallicFactor":0,
				"metallicRoughnessTexture":{
					"index":2
				},
				"roughnessFactor":0.4391847252845764
			}
		}
	],
	"meshes":[
		{
			"name":"Retopo_body.001__0.001",
			"primitives":[
				{
					"attributes":{
						"POSITION":0,
						"NORMAL":1,
						"TEXCOORD_0":2
					},
					"indices":3,
					"material":0
				}
			]
		}
	],
	"textures":[
		{
			"sampler":0,
			"source":0
		},
		{
			"sampler":0,
			"source":1
		},
		{
			"sampler":0,
			"source":2
		}
	],
	"images":[
		{
			"mimeType":"image/png",
			"name":"Scene_-_Root_normal",
			"uri":"Scene_-_Root_normal.png"
		},
		{
			"mimeType":"image/png",
			"name":"Scene_-_Root_baseColor",
			"uri":"Scene_-_Root_baseColor.png"
		},
		{
			"mimeType":"image/png",
			"name":"Scene_-_Root_metallicRoughness",
			"uri":"Scene_-_Root_metallicRoughness.png"
		}
	],
	"accessors":[
		{
			"bufferView":0,
			"componentType":5126,
			"count":9589,
			"max":[
				2.4757165908813477,
				0.1501443237066269,
				0.2842985689640045
			],
			"min":[
				-2.10176420211792,
				-0.14921629428863525,
				-0.36024585366249084
			],
			"type":"VEC3"
		},
		{
			"bufferView":1,
			"componentType":5126,
			"count":9589,
			"type":"VEC3"
		},
		{
			"bufferView":2,
			"componentType":5126,
			"count":9589,
			"type":"VEC2"
		},
		{
			"bufferView":3,
			"componentType":5123,
			"count":48546,
			"type":"SCALAR"
		}
	],
	"bufferViews":[
		{
			"buffer":0,
			"byteLength":115068,
			"byteOffset":0,
			"target":34962
		},
		{
			"buffer":0,
			"byteLength":115068,
			"byteOffset":115068,
			"target":34962
		},
		{
			"buffer":0,
			"byteLength":76712,
			"byteOffset":230136,
			"target":34962
		},
		{
			"buffer":0,
			"byteLength":97092,
			"byteOffset":306848,
			"target":34963
		}
	],
	"samplers":[
		{
			"magFilter":9729,
			"minFilter":9987
		}
	],
	"buffers":[
		{
			"byteLength":403940,
			"uri":"scene.bin"
		}
	]
}
