{
	"asset":{
		"generator":"Khronos glTF Blender I/O v5.1.18",
		"version":"2.0"
	},
	"scene":0,
	"scenes":[
		{
			"name":"Scene",
			"nodes":[
				0,
				2,
				7
			]
		}
	],
	"nodes":[
		{
			"name":"Cube",
			"rotation":[
				-0.70710688829422,
				0,
				0,
				0.7071066498756409
			],
			"scale":[
				2.3970906734466553,
				2.397090435028076,
				2.397090435028076
			],
			"translation":[
				1.5738213062286377,
				3.450301170349121,
				-53.104434967041016
			]
		},
		{
			"name":"Object_4",
			"translation":[
				-4.00543212890625e-05,
				2.86102294921875e-05,
				-7.62939453125e-06
			]
		},
		{
			"children":[
				1
			],
			"name":"CINEMA_4D_Editor",
			"rotation":[
				0.06633269041776657,
				-0.9792999029159546,
				-0.01292380690574646,
				0.19080008566379547
			],
			"translation":[
				966.09765625,
				196.2276611328125,
				-474.0234680175781
			]
		},
		{
			"mesh":0,
			"name":"Retopo_body.001__0"
		},
		{
			"children":[
				3
			],
			"name":"Retopo_body.001",
			"rotation":[
				-0.7071069478988647,
				0,
				0,
				0.7071066498756409
			],
			"scale":[
				100.00001525878906,
				100.00000762939453,
				100.00000762939453
			]
		},
		{
			"children":[
				4
			],
			"name":"RootNode"
		},
		{
			"children":[
				5
			],
			"name":"fb3b626fb78a42548c2c3acb12cd0f63.fbx",
			"rotation":[
				0.7071068286895752,
				0,
				0,
				0.7071067094802856
			],
			"scale":[
				0.009999999776482582,
				0.010000001639127731,
				0.010000002570450306
			]
		},
		{
			"children":[
				6
			],
			"name":"Sketchfab_model",
			"rotation":[
				0.05241529643535614,
				-0.7108919024467468,
				0.05328274518251419,
				0.699318528175354
			]
		}
	],
	"materials":[
		{
			"doubleSided":true,
			"name":"Scene_-_Root",
			"normalTexture":{
				"index":0
			},
			"pbrMetallicRoughness":{
				"baseColorTexture":{
					"index":1
				},
				"metallicFactor":0,
				"metallicRoughnessTexture":{
					"index":2
				},
				"roughnessFactor":0.4391847252845764
			}
		}
	],
	"meshes":[
		{
			"name":"Retopo_body.001__0",
			"primitives":[
				{
					"attributes":{
						"POSITION":0,
						"NORMAL":1,
						"TEXCOORD_0":2
					},
					"indices":3,
					"material":0
				}
			]
		}
	],
	"textures":[
		{
			"sampler":0,
			"source":0
		},
		{
			"sampler":0,
			"source":1
		},
		{
			"sampler":0,
			"source":2
		}
	],
	"images":[
		{
			"mimeType":"image/png",
			"name":"Scene_-_Root_normal",
			"uri":"Scene_-_Root_normal.png"
		},
		{
			"mimeType":"image/png",
			"name":"Scene_-_Root_baseColor",
			"uri":"Scene_-_Root_baseColor.png"
		},
		{
			"mimeType":"image/png",
			"name":"Scene_-_Root_metallicRoughness",
			"uri":"Scene_-_Root_metallicRoughness.png"
		}
	],
	"accessors":[
		{
			"bufferView":0,
			"componentType":5126,
			"count":9589,
			"max":[
				2.4757165908813477,
				0.1501443237066269,
				0.2842985689640045
			],
			"min":[
				-2.10176420211792,
				-0.14921629428863525,
				-0.36024585366249084
			],
			"type":"VEC3"
		},
		{
			"bufferView":1,
			"componentType":5126,
			"count":9589,
			"type":"VEC3"
		},
		{
			"bufferView":2,
			"componentType":5126,
			"count":9589,
			"type":"VEC2"
		},
		{
			"bufferView":3,
			"componentType":5123,
			"count":48546,
			"type":"SCALAR"
		}
	],
	"bufferViews":[
		{
			"buffer":0,
			"byteLength":115068,
			"byteOffset":0,
			"target":34962
		},
		{
			"buffer":0,
			"byteLength":115068,
			"byteOffset":115068,
			"target":34962
		},
		{
			"buffer":0,
			"byteLength":76712,
			"byteOffset":230136,
			"target":34962
		},
		{
			"buffer":0,
			"byteLength":97092,
			"byteOffset":306848,
			"target":34963
		}
	],
	"samplers":[
		{
			"magFilter":9729,
			"minFilter":9987
		}
	],
	"buffers":[
		{
			"byteLength":403940,
			"uri":"scene.bin"
		}
	]
}
