{
	"asset":{
		"generator":"Khronos glTF Blender I/O v5.1.18",
		"version":"2.0"
	},
	"scene":0,
	"scenes":[
		{
			"name":"Scene",
			"nodes":[
				0,
				2,
				7,
				11
			]
		}
	],
	"nodes":[
		{
			"name":"Cube",
			"rotation":[
				-0.70710688829422,
				0,
				0,
				0.7071066498756409
			],
			"scale":[
				2.3970906734466553,
				2.397090435028076,
				2.397090435028076
			],
			"translation":[
				1.5738213062286377,
				3.450301170349121,
				-53.104434967041016
			]
		},
		{
			"name":"Object_4",
			"translation":[
				-4.00543212890625e-05,
				2.86102294921875e-05,
				-7.62939453125e-06
			]
		},
		{
			"children":[
				1
			],
			"name":"CINEMA_4D_Editor",
			"rotation":[
				0.06633269041776657,
				-0.9792999029159546,
				-0.01292380690574646,
				0.19080008566379547
			],
			"translation":[
				966.09765625,
				196.2276611328125,
				-474.0234680175781
			]
		},
		{
			"mesh":0,
			"name":"Retopo_body.001__0"
		},
		{
			"children":[
				3
			],
			"name":"Retopo_body.001",
			"rotation":[
				-0.7071069478988647,
				0,
				0,
				0.7071066498756409
			],
			"scale":[
				100.00001525878906,
				100.00000762939453,
				100.00000762939453
			]
		},
		{
			"children":[
				4
			],
			"name":"RootNode"
		},
		{
			"children":[
				5
			],
			"name":"fb3b626fb78a42548c2c3acb12cd0f63.fbx",
			"rotation":[
				0.7071068286895752,
				0,
				0,
				0.7071067094802856
			],
			"scale":[
				0.009999999776482582,
				0.010000001639127731,
				0.010000002570450306
			]
		},
		{
			"children":[
				6
			],
			"name":"Sketchfab_model",
			"rotation":[
				0.05241529643535614,
				-0.7108919024467468,
				0.05328274518251419,
				0.699318528175354
			]
		},
		{
			"mesh":1,
			"name":"Object_2"
		},
		{
			"mesh":2,
			"name":"Object_3"
		},
		{
			"children":[
				8,
				9
			],
			"name":"ca134f1b9916474b989866f474552998.obj.cleaner.materialmerger.gles"
		},
		{
			"children":[
				10
			],
			"name":"Sketchfab_model.001",
			"rotation":[
				-0.6707010865211487,
				0.18656706809997559,
				0.1852203905582428,
				0.6935749650001526
			],
			"scale":[
				0.09060761332511902,
				0.09060762822628021,
				0.09060762077569962
			]
		}
	],
	"materials":[
		{
			"doubleSided":true,
			"name":"Scene_-_Root",
			"normalTexture":{
				"index":0
			},
			"pbrMetallicRoughness":{
				"baseColorTexture":{
					"index":1
				},
				"metallicFactor":0,
				"metallicRoughnessTexture":{
					"index":2
				},
				"roughnessFactor":0.4391847252845764
			}
		},
		{
			"doubleSided":true,
			"name":"material.001",
			"pbrMetallicRoughness":{
				"baseColorFactor":[
					1,
					0.31604793667793274,
					0.0736778974533081,
					1
				],
				"metallicFactor":0,
				"roughnessFactor":0.14209263026714325
			}
		},
		{
			"doubleSided":true,
			"name":"Mat.1",
			"pbrMetallicRoughness":{
				"metallicFactor":0,
				"roughnessFactor":0
			}
		}
	],
	"meshes":[
		{
			"name":"Retopo_body.001__0",
			"primitives":[
				{
					"attributes":{
						"POSITION":0,
						"NORMAL":1,
						"TEXCOORD_0":2
					},
					"indices":3,
					"material":0
				}
			]
		},
		{
			"name":"Object_0.003",
			"primitives":[
				{
					"attributes":{
						"POSITION":4,
						"NORMAL":5,
						"TEXCOORD_0":6
					},
					"indices":7,
					"material":1
				}
			]
		},
		{
			"name":"Object_1.002",
			"primitives":[
				{
					"attributes":{
						"POSITION":8,
						"NORMAL":9,
						"TEXCOORD_0":10
					},
					"indices":11,
					"material":2
				}
			]
		}
	],
	"textures":[
		{
			"sampler":0,
			"source":0
		},
		{
			"sampler":0,
			"source":1
		},
		{
			"sampler":0,
			"source":2
		}
	],
	"images":[
		{
			"mimeType":"image/png",
			"name":"Scene_-_Root_normal",
			"uri":"Scene_-_Root_normal.png"
		},
		{
			"mimeType":"image/png",
			"name":"Scene_-_Root_baseColor",
			"uri":"Scene_-_Root_baseColor.png"
		},
		{
			"mimeType":"image/png",
			"name":"Scene_-_Root_metallicRoughness",
			"uri":"Scene_-_Root_metallicRoughness.png"
		}
	],
	"accessors":[
		{
			"bufferView":0,
			"componentType":5126,
			"count":9589,
			"max":[
				2.4757165908813477,
				0.1501443237066269,
				0.2842985689640045
			],
			"min":[
				-2.10176420211792,
				-0.14921629428863525,
				-0.36024585366249084
			],
			"type":"VEC3"
		},
		{
			"bufferView":1,
			"componentType":5126,
			"count":9589,
			"type":"VEC3"
		},
		{
			"bufferView":2,
			"componentType":5126,
			"count":9589,
			"type":"VEC2"
		},
		{
			"bufferView":3,
			"componentType":5123,
			"count":48546,
			"type":"SCALAR"
		},
		{
			"bufferView":4,
			"componentType":5126,
			"count":1321,
			"max":[
				40.8316535949707,
				40.8316535949707,
				21.014047622680664
			],
			"min":[
				-40.8316535949707,
				-40.8316535949707,
				5
			],
			"type":"VEC3"
		},
		{
			"bufferView":5,
			"componentType":5126,
			"count":1321,
			"type":"VEC3"
		},
		{
			"bufferView":6,
			"componentType":5126,
			"count":1321,
			"type":"VEC2"
		},
		{
			"bufferView":7,
			"componentType":5123,
			"count":7152,
			"type":"SCALAR"
		},
		{
			"bufferView":8,
			"componentType":5126,
			"count":627,
			"max":[
				115.31568908691406,
				93.37197875976562,
				5
			],
			"min":[
				-107.63367462158203,
				-78.57428741455078,
				0
			],
			"type":"VEC3"
		},
		{
			"bufferView":9,
			"componentType":5126,
			"count":627,
			"type":"VEC3"
		},
		{
			"bufferView":10,
			"componentType":5126,
			"count":627,
			"type":"VEC2"
		},
		{
			"bufferView":11,
			"componentType":5123,
			"count":2340,
			"type":"SCALAR"
		}
	],
	"bufferViews":[
		{
			"buffer":0,
			"byteLength":115068,
			"byteOffset":0,
			"target":34962
		},
		{
			"buffer":0,
			"byteLength":115068,
			"byteOffset":115068,
			"target":34962
		},
		{
			"buffer":0,
			"byteLength":76712,
			"byteOffset":230136,
			"target":34962
		},
		{
			"buffer":0,
			"byteLength":97092,
			"byteOffset":306848,
			"target":34963
		},
		{
			"buffer":0,
			"byteLength":15852,
			"byteOffset":403940,
			"target":34962
		},
		{
			"buffer":0,
			"byteLength":15852,
			"byteOffset":419792,
			"target":34962
		},
		{
			"buffer":0,
			"byteLength":10568,
			"byteOffset":435644,
			"target":34962
		},
		{
			"buffer":0,
			"byteLength":14304,
			"byteOffset":446212,
			"target":34963
		},
		{
			"buffer":0,
			"byteLength":7524,
			"byteOffset":460516,
			"target":34962
		},
		{
			"buffer":0,
			"byteLength":7524,
			"byteOffset":468040,
			"target":34962
		},
		{
			"buffer":0,
			"byteLength":5016,
			"byteOffset":475564,
			"target":34962
		},
		{
			"buffer":0,
			"byteLength":4680,
			"byteOffset":480580,
			"target":34963
		}
	],
	"samplers":[
		{
			"magFilter":9729,
			"minFilter":9987
		}
	],
	"buffers":[
		{
			"byteLength":485260,
			"uri":"scene.bin"
		}
	]
}
