{
	"asset":{
		"generator":"Khronos glTF Blender I/O v5.0.21",
		"version":"2.0"
	},
	"scene":0,
	"scenes":[
		{
			"name":"Scene",
			"nodes":[
				1,
				5,
				8
			]
		}
	],
	"nodes":[
		{
			"name":"Object_4",
			"translation":[
				-4.00543212890625e-05,
				3.814697265625e-05,
				0
			]
		},
		{
			"children":[
				0
			],
			"name":"CINEMA_4D_Editor",
			"rotation":[
				0.06633269041776657,
				-0.9792999029159546,
				-0.012923805974423885,
				0.19080008566379547
			],
			"translation":[
				966.09765625,
				196.2276611328125,
				-474.0234680175781
			]
		},
		{
			"name":"Retopo_body.001",
			"rotation":[
				-0.7071069478988647,
				0,
				0,
				0.7071065902709961
			],
			"scale":[
				100.0000228881836,
				100.00000762939453,
				100.00001525878906
			]
		},
		{
			"children":[
				2
			],
			"name":"RootNode"
		},
		{
			"children":[
				3
			],
			"name":"fb3b626fb78a42548c2c3acb12cd0f63.fbx",
			"rotation":[
				0.7071068286895752,
				0,
				0,
				0.7071067094802856
			],
			"scale":[
				0.009999999776482582,
				0.010000002570450306,
				0.01000000350177288
			]
		},
		{
			"children":[
				4
			],
			"name":"Sketchfab_model",
			"rotation":[
				0.05241529643535614,
				-0.7108919024467468,
				0.05328274145722389,
				0.6993184685707092
			]
		},
		{
			"mesh":0,
			"name":"Object_2",
			"scale":[
				0.10859712958335876,
				0.10859715193510056,
				0.10859714448451996
			]
		},
		{
			"children":[
				6
			],
			"name":"ca134f1b9916474b989866f474552998.obj.cleaner.materialmerger.gles"
		},
		{
			"children":[
				7
			],
			"name":"Sketchfab_model.001",
			"rotation":[
				-0.6707010865211487,
				0.18656706809997559,
				0.1852203607559204,
				0.6935749650001526
			],
			"scale":[
				0.09060761332511902,
				0.09060763567686081,
				0.09060762077569962
			]
		}
	],
	"materials":[
		{
			"doubleSided":true,
			"name":"material.001",
			"pbrMetallicRoughness":{
				"baseColorFactor":[
					1,
					0.31604793667793274,
					0.0736778974533081,
					1
				],
				"metallicFactor":0,
				"roughnessFactor":0.14209263026714325
			}
		},
		{
			"doubleSided":true,
			"name":"Scene_-_Root",
			"normalTexture":{
				"index":0
			},
			"pbrMetallicRoughness":{
				"baseColorTexture":{
					"index":1
				},
				"metallicFactor":0,
				"metallicRoughnessTexture":{
					"index":2
				},
				"roughnessFactor":0.4391847252845764
			}
		},
		{
			"doubleSided":true,
			"name":"Mat.1",
			"pbrMetallicRoughness":{
				"metallicFactor":0,
				"roughnessFactor":0
			}
		}
	],
	"meshes":[
		{
			"name":"Object_0.003",
			"primitives":[
				{
					"attributes":{
						"POSITION":0,
						"NORMAL":1,
						"TEXCOORD_0":2
					},
					"indices":3,
					"material":0
				},
				{
					"attributes":{
						"POSITION":4,
						"NORMAL":5,
						"TEXCOORD_0":6
					},
					"indices":7,
					"material":1
				},
				{
					"attributes":{
						"POSITION":8,
						"NORMAL":9,
						"TEXCOORD_0":10
					},
					"indices":11,
					"material":2
				}
			]
		}
	],
	"textures":[
		{
			"sampler":0,
			"source":0
		},
		{
			"sampler":0,
			"source":1
		},
		{
			"sampler":0,
			"source":2
		}
	],
	"images":[
		{
			"mimeType":"image/png",
			"name":"Scene_-_Root_normal",
			"uri":"Scene_-_Root_normal.png"
		},
		{
			"mimeType":"image/png",
			"name":"Scene_-_Root_baseColor",
			"uri":"Scene_-_Root_baseColor.png"
		},
		{
			"mimeType":"image/png",
			"name":"Scene_-_Root_metallicRoughness",
			"uri":"Scene_-_Root_metallicRoughness.png"
		}
	],
	"accessors":[
		{
			"bufferView":0,
			"componentType":5126,
			"count":1321,
			"max":[
				40.8316535949707,
				40.8316535949707,
				21.014047622680664
			],
			"min":[
				-40.8316535949707,
				-40.8316535949707,
				5
			],
			"type":"VEC3"
		},
		{
			"bufferView":1,
			"componentType":5126,
			"count":1321,
			"type":"VEC3"
		},
		{
			"bufferView":2,
			"componentType":5126,
			"count":1321,
			"type":"VEC2"
		},
		{
			"bufferView":3,
			"componentType":5123,
			"count":7152,
			"type":"SCALAR"
		},
		{
			"bufferView":4,
			"componentType":5126,
			"count":9589,
			"max":[
				11.776127815246582,
				20.316564559936523,
				2.119865894317627
			],
			"min":[
				-16.13744354248047,
				-25.011777877807617,
				-2.0147414207458496
			],
			"type":"VEC3"
		},
		{
			"bufferView":5,
			"componentType":5126,
			"count":9589,
			"type":"VEC3"
		},
		{
			"bufferView":6,
			"componentType":5126,
			"count":9589,
			"type":"VEC2"
		},
		{
			"bufferView":7,
			"componentType":5123,
			"count":48546,
			"type":"SCALAR"
		},
		{
			"bufferView":8,
			"componentType":5126,
			"count":627,
			"max":[
				115.31568908691406,
				93.37197875976562,
				5
			],
			"min":[
				-107.63367462158203,
				-78.57428741455078,
				0
			],
			"type":"VEC3"
		},
		{
			"bufferView":9,
			"componentType":5126,
			"count":627,
			"type":"VEC3"
		},
		{
			"bufferView":10,
			"componentType":5126,
			"count":627,
			"type":"VEC2"
		},
		{
			"bufferView":11,
			"componentType":5123,
			"count":2340,
			"type":"SCALAR"
		}
	],
	"bufferViews":[
		{
			"buffer":0,
			"byteLength":15852,
			"byteOffset":0,
			"target":34962
		},
		{
			"buffer":0,
			"byteLength":15852,
			"byteOffset":15852,
			"target":34962
		},
		{
			"buffer":0,
			"byteLength":10568,
			"byteOffset":31704,
			"target":34962
		},
		{
			"buffer":0,
			"byteLength":14304,
			"byteOffset":42272,
			"target":34963
		},
		{
			"buffer":0,
			"byteLength":115068,
			"byteOffset":56576,
			"target":34962
		},
		{
			"buffer":0,
			"byteLength":115068,
			"byteOffset":171644,
			"target":34962
		},
		{
			"buffer":0,
			"byteLength":76712,
			"byteOffset":286712,
			"target":34962
		},
		{
			"buffer":0,
			"byteLength":97092,
			"byteOffset":363424,
			"target":34963
		},
		{
			"buffer":0,
			"byteLength":7524,
			"byteOffset":460516,
			"target":34962
		},
		{
			"buffer":0,
			"byteLength":7524,
			"byteOffset":468040,
			"target":34962
		},
		{
			"buffer":0,
			"byteLength":5016,
			"byteOffset":475564,
			"target":34962
		},
		{
			"buffer":0,
			"byteLength":4680,
			"byteOffset":480580,
			"target":34963
		}
	],
	"samplers":[
		{
			"magFilter":9729,
			"minFilter":9987
		}
	],
	"buffers":[
		{
			"byteLength":485260,
			"uri":"scene.bin"
		}
	]
}
