{
	"asset":{
		"generator":"Khronos glTF Blender I/O v5.1.18",
		"version":"2.0"
	},
	"extensionsUsed":[
		"KHR_materials_unlit"
	],
	"scene":0,
	"scenes":[
		{
			"name":"Scene",
			"nodes":[
				0,
				2,
				5
			]
		}
	],
	"nodes":[
		{
			"name":"Cube",
			"rotation":[
				-0.70710688829422,
				0,
				0,
				0.7071066498756409
			],
			"scale":[
				2.3970906734466553,
				2.397090435028076,
				2.397090435028076
			],
			"translation":[
				1.5738213062286377,
				3.450301170349121,
				-53.104434967041016
			]
		},
		{
			"name":"Object_4",
			"translation":[
				-4.00543212890625e-05,
				2.86102294921875e-05,
				-7.62939453125e-06
			]
		},
		{
			"children":[
				1
			],
			"name":"CINEMA_4D_Editor",
			"rotation":[
				0.06633269041776657,
				-0.9792999029159546,
				-0.01292380690574646,
				0.19080008566379547
			],
			"translation":[
				966.09765625,
				196.2276611328125,
				-474.0234680175781
			]
		},
		{
			"mesh":0,
			"name":"Object_2",
			"rotation":[
				0.0015066418563947082,
				0.07193786650896072,
				-0.6846100091934204,
				0.725349485874176
			]
		},
		{
			"children":[
				3
			],
			"name":"\ufffd\ufffd\ufffd\ufffd\ufffd\ufffd\ufffd\ufffd\ufffd\ufffd\ufffd\ufffd.obj.cleaner.materialmerger.gles"
		},
		{
			"children":[
				4
			],
			"name":"Sketchfab_model",
			"rotation":[
				-0.70710688829422,
				0,
				0,
				0.7071066498756409
			]
		}
	],
	"materials":[
		{
			"doubleSided":true,
			"extensions":{
				"KHR_materials_unlit":{}
			},
			"name":"first",
			"pbrMetallicRoughness":{
				"baseColorTexture":{
					"index":0
				},
				"metallicFactor":0,
				"roughnessFactor":0.9
			}
		}
	],
	"meshes":[
		{
			"name":"Object_0.005",
			"primitives":[
				{
					"attributes":{
						"POSITION":0,
						"NORMAL":1,
						"TEXCOORD_0":2
					},
					"indices":3,
					"material":0
				}
			]
		}
	],
	"textures":[
		{
			"sampler":0,
			"source":0
		}
	],
	"images":[
		{
			"mimeType":"image/jpeg",
			"name":"first_baseColor",
			"uri":"first_baseColor.jpg"
		}
	],
	"accessors":[
		{
			"bufferView":0,
			"componentType":5126,
			"count":86,
			"max":[
				0.6866753101348877,
				0.9727159142494202,
				0.30217456817626953
			],
			"min":[
				-0.39024782180786133,
				-0.8940760493278503,
				-0.18409544229507446
			],
			"type":"VEC3"
		},
		{
			"bufferView":1,
			"componentType":5126,
			"count":86,
			"type":"VEC3"
		},
		{
			"bufferView":2,
			"componentType":5126,
			"count":86,
			"type":"VEC2"
		},
		{
			"bufferView":3,
			"componentType":5123,
			"count":396,
			"type":"SCALAR"
		}
	],
	"bufferViews":[
		{
			"buffer":0,
			"byteLength":1032,
			"byteOffset":0,
			"target":34962
		},
		{
			"buffer":0,
			"byteLength":1032,
			"byteOffset":1032,
			"target":34962
		},
		{
			"buffer":0,
			"byteLength":688,
			"byteOffset":2064,
			"target":34962
		},
		{
			"buffer":0,
			"byteLength":792,
			"byteOffset":2752,
			"target":34963
		}
	],
	"samplers":[
		{
			"magFilter":9729,
			"minFilter":9987
		}
	],
	"buffers":[
		{
			"byteLength":3544,
			"uri":"scene.bin"
		}
	]
}
