{
	"asset":{
		"generator":"Khronos glTF Blender I/O v5.1.18",
		"version":"2.0"
	},
	"extensionsUsed":[
		"KHR_materials_unlit"
	],
	"scene":0,
	"scenes":[
		{
			"name":"Scene",
			"nodes":[
				1,
				3,
				13
			]
		}
	],
	"nodes":[
		{
			"name":"Object_4",
			"translation":[
				-4.00543212890625e-05,
				2.86102294921875e-05,
				-7.62939453125e-06
			]
		},
		{
			"children":[
				0
			],
			"name":"CINEMA_4D_Editor",
			"rotation":[
				0.06633269041776657,
				-0.9792999029159546,
				-0.01292380690574646,
				0.19080008566379547
			],
			"translation":[
				966.09765625,
				196.2276611328125,
				-474.0234680175781
			]
		},
		{
			"name":"Object_4.001",
			"translation":[
				-4.00543212890625e-05,
				3.814697265625e-05,
				0
			]
		},
		{
			"children":[
				2
			],
			"name":"CINEMA_4D_Editor.001",
			"rotation":[
				0.06633269041776657,
				-0.9792999029159546,
				-0.012923805974423885,
				0.19080008566379547
			],
			"translation":[
				966.09765625,
				196.2276611328125,
				-474.0234680175781
			]
		},
		{
			"name":"EggWhite"
		},
		{
			"name":"EggYolk"
		},
		{
			"mesh":0,
			"name":"HotDog_lambert2_0",
			"translation":[
				-0.05721931532025337,
				0.012180561199784279,
				-0.19493000209331512
			]
		},
		{
			"children":[
				6
			],
			"name":"HotDog",
			"rotation":[
				-0.07953394204378128,
				0.0639890655875206,
				-0.09323233366012573,
				0.9903976917266846
			],
			"translation":[
				0.0701662078499794,
				0.46769827604293823,
				0.20742003619670868
			]
		},
		{
			"name":"Hotdog_2",
			"rotation":[
				-0.1139758974313736,
				0.033377259969711304,
				-0.19032332301139832,
				0.974511444568634
			],
			"translation":[
				-0.04117307439446449,
				0.6204771995544434,
				0.16618381440639496
			]
		},
		{
			"name":"Rice",
			"rotation":[
				0,
				0.2842181324958801,
				0,
				0.9587596654891968
			],
			"translation":[
				0.1705440729856491,
				0,
				-0.7790273427963257
			]
		},
		{
			"children":[
				4,
				5,
				7,
				8,
				9
			],
			"name":"Plate",
			"scale":[
				0.7751513123512268,
				0.7751513123512268,
				0.7751513123512268
			],
			"translation":[
				0,
				-0.16158029437065125,
				0
			]
		},
		{
			"children":[
				10
			],
			"name":"RootNode"
		},
		{
			"children":[
				11
			],
			"name":"HotSilog.fbx",
			"rotation":[
				0.70710688829422,
				0,
				0,
				0.7071066498756409
			]
		},
		{
			"children":[
				12
			],
			"name":"Sketchfab_model",
			"rotation":[
				-0.70710688829422,
				0,
				0,
				0.7071066498756409
			]
		}
	],
	"materials":[
		{
			"doubleSided":true,
			"extensions":{
				"KHR_materials_unlit":{}
			},
			"name":"lambert2",
			"pbrMetallicRoughness":{
				"baseColorTexture":{
					"index":0
				},
				"metallicFactor":0,
				"roughnessFactor":0.9
			}
		}
	],
	"meshes":[
		{
			"name":"HotDog_lambert2_0",
			"primitives":[
				{
					"attributes":{
						"POSITION":0,
						"NORMAL":1,
						"TEXCOORD_0":2
					},
					"indices":3,
					"material":0
				}
			]
		}
	],
	"textures":[
		{
			"sampler":0,
			"source":0
		}
	],
	"images":[
		{
			"mimeType":"image/png",
			"name":"lambert2_baseColor",
			"uri":"lambert2_baseColor.png"
		}
	],
	"accessors":[
		{
			"bufferView":0,
			"componentType":5126,
			"count":317,
			"max":[
				0.9322763681411743,
				0.391309529542923,
				1.7480010986328125
			],
			"min":[
				-1.1017494201660156,
				-0.44102275371551514,
				-1.6387238502502441
			],
			"type":"VEC3"
		},
		{
			"bufferView":1,
			"componentType":5126,
			"count":317,
			"type":"VEC3"
		},
		{
			"bufferView":2,
			"componentType":5126,
			"count":317,
			"type":"VEC2"
		},
		{
			"bufferView":3,
			"componentType":5123,
			"count":1800,
			"type":"SCALAR"
		}
	],
	"bufferViews":[
		{
			"buffer":0,
			"byteLength":3804,
			"byteOffset":0,
			"target":34962
		},
		{
			"buffer":0,
			"byteLength":3804,
			"byteOffset":3804,
			"target":34962
		},
		{
			"buffer":0,
			"byteLength":2536,
			"byteOffset":7608,
			"target":34962
		},
		{
			"buffer":0,
			"byteLength":3600,
			"byteOffset":10144,
			"target":34963
		}
	],
	"samplers":[
		{
			"magFilter":9729,
			"minFilter":9987
		}
	],
	"buffers":[
		{
			"byteLength":13744,
			"uri":"scene.bin"
		}
	]
}
